<svg xmlns="http://www.w3.org/2000/svg" version="1.1" xmlns:xlink="http://www.w3.org/1999/xlink" xmlns:svgjs="http://svgjs.com/svgjs" width="512" height="512" x="0" y="0" viewBox="0 0 64 64" style="enable-background:new 0 0 512 512" xml:space="preserve" class=""><g><path d="M56.323 45.595c-2.075-3.619-5.619-5.987-9.723-6.496-.623-.078-1.151-.437-1.414-.964a1.759 1.759 0 0 1-.186-.787v-1.367c2.423-1.827 4-4.719 4-7.981v-1.101A5.009 5.009 0 0 0 53 22c0-1.654-1.346-3-3-3-.875 0-1.656.383-2.205.982a3.882 3.882 0 0 1-3.599-3.1l-.215-1.078a1 1 0 0 0-.918-.802 1.012 1.012 0 0 0-1.011.682 4.736 4.736 0 0 1-2.636 2.869 3.602 3.602 0 0 0-1.968-3.447 1.005 1.005 0 0 0-.802-.041c-.261.1-.469.304-.573.563l-.107.266a8.374 8.374 0 0 1-3.093 3.841 1 1 0 0 0-.267 1.389c.183.27.476.405.778.421a3.78 3.78 0 0 0-1.09.748.999.999 0 1 0 1.414 1.414 1.83 1.83 0 0 1 2.586 0 .997.997 0 0 0 1.413 0 .999.999 0 0 0 0-1.414 3.818 3.818 0 0 0-3.571-1.011 10.378 10.378 0 0 0 3.177-3.556c.133.336.152.717.032 1.079l-.293.879a1.002 1.002 0 0 0 1.191 1.287l.933-.233a6.737 6.737 0 0 0 3.49-2.149 5.916 5.916 0 0 0 4.335 3.326V28c0 4.411-3.589 8-8 8s-8-3.589-8-8v-6a2.998 2.998 0 0 0-2.887-2.989A10.455 10.455 0 0 1 38.489 10h1.021c4.369 0 8.321 2.754 9.834 6.853a1 1 0 0 0 1.876-.692 12.369 12.369 0 0 0-2.118-3.642 3.505 3.505 0 0 0 .866-2.782C49.87 9 49.49 8.309 48.926 7.764A4.32 4.32 0 0 0 49 7c0-2.757-2.243-5-5-5a5.01 5.01 0 0 0-4.213 2.338 3.55 3.55 0 0 0-.788.185 3.482 3.482 0 0 0-2.219 2.694 3.6 3.6 0 0 0-.015.915 12.436 12.436 0 0 0-10.726 11.616A2.982 2.982 0 0 0 25 22a5.01 5.01 0 0 0 4 4.899V28c0 3.262 1.577 6.154 4 7.981v1.367c0 .272-.064.545-.187.789-.263.525-.791.885-1.414.962-4.104.509-7.647 2.877-9.723 6.497-.053.093-.09.199-.141.294l-.715-2.859a3.983 3.983 0 0 0-2.394-2.734l-2.287-3.811a.993.993 0 0 0-.855-.486 3.445 3.445 0 0 0-2.676 1.267A3.436 3.436 0 0 0 11.88 40h-1.096l-1.585-2.114c-.85-1.133-2.349-1.533-3.567-.951a2.853 2.853 0 0 0-1.151 4.16l1.488 2.232A5.982 5.982 0 0 0 10.959 46H13.4l1.453 11.62A5.008 5.008 0 0 0 19.814 62a1 1 0 0 0 0-2c-1.51 0-2.79-1.13-2.977-2.628L15.416 46H17a1 1 0 0 0 0-2h-6.041a3.993 3.993 0 0 1-3.328-1.781l-1.488-2.232a.854.854 0 0 1 .35-1.247c.355-.17.828-.02 1.104.347L9.484 41.6a1 1 0 0 0 .8.4h6.658c.919 0 1.717.623 1.94 1.515l3.682 14.728a1 1 0 0 0 1.941-.485l-2.131-8.523c.241-.967.589-1.858 1.04-2.644 1.759-3.069 4.76-5.076 8.233-5.507a3.898 3.898 0 0 0 1.893-.776c-.014.064-.04.124-.04.192a1 1 0 0 0 1 1 .978.978 0 0 0 .536-.177c-.011.059-.036.114-.036.177a1 1 0 0 0 1 1 .978.978 0 0 0 .536-.177c-.011.06-.036.115-.036.177 0 .438.286.8.679.935-.42.535-.679 1.255-.679 2.065 0 1.682 1.098 3 2.5 3s2.5-1.318 2.5-3c0-.81-.259-1.53-.679-2.065a.99.99 0 0 0 .679-.935c0-.063-.025-.118-.036-.177A.978.978 0 0 0 42 42.5a1 1 0 0 0 1-1c0-.063-.025-.118-.036-.177a.97.97 0 0 0 .536.177 1 1 0 0 0 1-1c0-.069-.026-.129-.039-.193a3.894 3.894 0 0 0 1.893.777c1.885.234 3.622.946 5.106 2.027-2.047 5.168-2.663 10.758-1.754 16.21l.308 1.845a1 1 0 1 0 1.973-.331l-.308-1.845c-.809-4.857-.318-9.831 1.388-14.472a11.384 11.384 0 0 1 1.521 2.071C55.512 48.202 56 50.161 56 52.255V61a1 1 0 0 0 2 0v-8.745c0-2.443-.58-4.745-1.677-6.66zM50 21c.551 0 1 .449 1 1a3.006 3.006 0 0 1-2 2.829V22c0-.551.449-1 1-1zM46.967 6.67c-.5-.204-.941-.429-1.287-.746a3.483 3.483 0 0 0-3.215-.813 3.46 3.46 0 0 0-.47-.322A2.982 2.982 0 0 1 44 4c1.541 0 2.8 1.172 2.967 2.67zm-7.283-.269a1.508 1.508 0 0 1 1.732.483 1 1 0 0 0 1.235.281 1.471 1.471 0 0 1 1.676.23c.749.688 1.636 1.047 2.556 1.385.095.035.194.082.295.139.444.254.754.668.81 1.08.053.398-.067.775-.294 1.08C45.464 9.146 42.577 8 39.511 8h-.753a1.568 1.568 0 0 1-.002-.474c.078-.499.451-.951.928-1.125zM27 22c0-.551.449-1 1-1s1 .449 1 1v2.829A3.006 3.006 0 0 1 27 22zM13.853 39.746a1.454 1.454 0 0 1 .92-1.653L15.917 40h-2.014zM39 46.5c-.176 0-.5-.38-.5-1s.324-1 .5-1 .5.38.5 1-.324 1-.5 1zm3.5-6c0 .063.025.118.036.177A.978.978 0 0 0 42 40.5a1 1 0 0 0-1 1c0 .063.025.118.036.177a.978.978 0 0 0-.536-.177.988.988 0 0 0-.938.695C39.399 42.081 39.213 42 39 42s-.399.081-.562.195a.99.99 0 0 0-.938-.695.978.978 0 0 0-.536.177c.011-.059.036-.114.036-.177a1 1 0 0 0-1-1 .978.978 0 0 0-.536.177c.011-.06.036-.114.036-.177a1 1 0 0 0-1-1c-.077 0-.144.027-.216.044.118-.162.227-.33.318-.512.26-.52.398-1.102.398-1.684v-.188a9.945 9.945 0 0 0 8-.001v.188c0 .582.138 1.165.397 1.683.091.182.201.351.319.513-.072-.016-.14-.044-.216-.044-.552.001-1 .449-1 1.001z" fill="#FDA31B" data-original="#000000" class=""></path><path d="M47.286 42.813a1 1 0 0 0-1.41.11 19.163 19.163 0 0 0-4.215 8.672 1.486 1.486 0 0 1-.812 1.053 1.48 1.48 0 0 1-1.329-.006 15.55 15.55 0 0 0-11.25-1.045l-.27.077V50a1 1 0 0 0-2 0v11a1 1 0 0 0 2 0v-4.151a10.686 10.686 0 0 1 6.285.998 1 1 0 0 0 .895-1.79 12.717 12.717 0 0 0-7.179-1.225v-1.079l.82-.235a13.548 13.548 0 0 1 9.806.912 3.498 3.498 0 0 0 1.564.372 3.5 3.5 0 0 0 1.538-.359 3.472 3.472 0 0 0 1.894-2.457 17.161 17.161 0 0 1 3.774-7.765.999.999 0 0 0-.111-1.408zM49.4 46.201a.999.999 0 0 0-1.4.199 16.202 16.202 0 0 0-2.916 6.517 1 1 0 1 0 1.961.392 14.188 14.188 0 0 1 2.554-5.708.999.999 0 0 0-.199-1.4zM45 24a.999.999 0 0 0 .707-1.707 3.832 3.832 0 0 0-5.414 0 .999.999 0 1 0 1.414 1.414 1.83 1.83 0 0 1 2.586 0A.997.997 0 0 0 45 24z" fill="#FDA31B" data-original="#000000" class=""></path><circle cx="43" cy="25" r="1" fill="#FDA31B" data-original="#000000" class=""></circle><circle cx="35" cy="25" r="1" fill="#FDA31B" data-original="#000000" class=""></circle><path d="M35.168 31.445a1.001 1.001 0 0 0 .277 1.387c1.08.72 2.317 1.08 3.555 1.08s2.475-.36 3.555-1.08a1 1 0 0 0-1.11-1.664 4.399 4.399 0 0 1-4.891 0 .999.999 0 0 0-1.386.277zM39.546 25.119a1 1 0 0 0-1.354.409l-1.073 2a1 1 0 0 0 .174 1.18l1 1a1 1 0 0 0 1.414-1.415l-.475-.475.722-1.346a.999.999 0 0 0-.408-1.353zM6.898 32.801l1.219.812a6.984 6.984 0 0 0 7.766 0l1.219-.812A10.98 10.98 0 0 0 22 23.648V16a1 1 0 0 0-.684-.949 29.64 29.64 0 0 0-18.633 0 1 1 0 1 0 .633 1.897A27.65 27.65 0 0 1 20 16.731v6.917a8.983 8.983 0 0 1-4.008 7.489l-1.219.812a4.988 4.988 0 0 1-5.547 0l-1.219-.812A8.985 8.985 0 0 1 4 23.648V20a1 1 0 0 0-2 0v3.648a10.98 10.98 0 0 0 4.898 9.153z" fill="#FDA31B" data-original="#000000" class=""></path><path d="M17.293 20.707a.997.997 0 0 0 1.414 0 .999.999 0 0 0 0-1.414 3.832 3.832 0 0 0-5.414 0 .999.999 0 1 0 1.414 1.414 1.83 1.83 0 0 1 2.586 0zM5.293 19.293a.999.999 0 1 0 1.414 1.414 1.83 1.83 0 0 1 2.586 0 .997.997 0 0 0 1.414 0 .999.999 0 0 0 0-1.414 3.832 3.832 0 0 0-5.414 0zM14.445 27.168a4.399 4.399 0 0 1-4.891 0 1.001 1.001 0 0 0-1.11 1.664c1.08.72 2.317 1.08 3.555 1.08s2.475-.36 3.555-1.08a1 1 0 0 0-1.109-1.664zM12.546 21.119a1 1 0 0 0-1.354.409l-1.073 2a1 1 0 0 0 .174 1.18l1 1a1 1 0 0 0 1.414-1.415l-.475-.475.722-1.346a.999.999 0 0 0-.408-1.353z" fill="#FDA31B" data-original="#000000" class=""></path></g></svg>