<svg xmlns="http://www.w3.org/2000/svg" version="1.1" xmlns:xlink="http://www.w3.org/1999/xlink" xmlns:svgjs="http://svgjs.com/svgjs" width="512" height="512" x="0" y="0" viewBox="0 0 511.999 511.999" style="enable-background:new 0 0 512 512" xml:space="preserve" class=""><g><path d="M453.034 361.322a7.514 7.514 0 0 0-8.19 1.628l-82.126 82.126a7.514 7.514 0 0 0 5.315 12.829h82.126a7.514 7.514 0 0 0 7.515-7.515v-82.126a7.517 7.517 0 0 0-4.64-6.942zm-66.861 81.554 56.469-56.469v56.469h-56.469z" fill="#FDA31B" data-original="#000000" class=""></path><path d="M507.361 240.867a7.514 7.514 0 0 0-8.19 1.628l-22.507 22.507V111.971a7.515 7.515 0 0 0-7.515-7.515h-57.741l20.96-20.96.009-.01 20.196-20.196c4.327-4.327 6.71-10.083 6.71-16.203s-2.383-11.874-6.71-16.203L429.219 7.53C424.892 3.203 419.136.82 413.016.82s-11.875 2.383-16.203 6.71l-20.206 20.206-24.416 24.416-52.303 52.303H66.62V30.11a7.515 7.515 0 0 0-7.515-7.515C26.515 22.597 0 49.11 0 81.702v319.186c0 .555.064 1.095.178 1.615 1.038 13.829 7.021 26.678 17.02 36.432C27.886 449.359 41.995 455.1 56.927 455.1h229.638l-43.249 43.249a7.516 7.516 0 0 0 5.314 12.829h255.855a7.515 7.515 0 0 0 7.515-7.515V247.81a7.517 7.517 0 0 0-4.639-6.943zM407.443 18.159c3.072-3.074 8.077-3.074 11.149 0l23.355 23.355c3.074 3.073 3.074 8.076 0 11.15l-14.891 14.892-34.506-34.505 14.893-14.892zm-25.521 25.52 34.505 34.504-13.789 13.789-34.503-34.504 13.787-13.789zm115.05 288.573h-13.865a7.514 7.514 0 0 0-7.515 7.515 7.514 7.514 0 0 0 7.515 7.515h13.865v22.646h-13.865c-4.151 0-7.515 3.364-7.515 7.515s3.364 7.515 7.515 7.515h13.865v22.645h-13.865a7.514 7.514 0 0 0-7.515 7.515 7.514 7.514 0 0 0 7.515 7.515h13.865v22.646h-13.865a7.515 7.515 0 1 0 0 15.03h13.865v35.842h-230.2l75.908-75.907a7.515 7.515 0 0 0 0-10.628 7.572 7.572 0 0 0-1.078-.889 7.514 7.514 0 0 0-9.551.889l-30.456 30.456H56.928c-22.792 0-41.14-17.794-41.862-40.545a44.19 44.19 0 0 1 .332-4.244l.003-.024c.084-.665.185-1.327.3-1.985l.04-.225a43.474 43.474 0 0 1 1.057-4.494c.11-.382.224-.763.345-1.14.121-.377.25-.75.381-1.123.091-.261.181-.522.279-.781.183-.492.377-.979.577-1.462.057-.139.113-.28.172-.419.257-.6.524-1.193.806-1.779l.035-.075c5.878-12.164 17.183-21.233 30.75-24.047l.114-.025c.622-.127 1.25-.236 1.882-.337.105-.017.21-.038.317-.054a44.641 44.641 0 0 1 1.725-.22c.162-.018.323-.043.486-.059a44.442 44.442 0 0 1 1.681-.128c.178-.011.356-.03.534-.039a44.298 44.298 0 0 1 2.223-.056 7.515 7.515 0 0 0 7.515-7.515v-54.489a7.515 7.515 0 1 0-15.03 0v47.447c-12.69 1.605-24.469 7.265-33.757 16.335a60.423 60.423 0 0 0-2.805 2.954V81.702c0-21.741 15.826-39.858 36.561-43.436V264.749a7.516 7.516 0 0 0 15.03 0V119.486h218.24l-41.544 41.544a7.515 7.515 0 0 0 10.627 10.628l54.373-54.373.005-.005 49.185-49.185 34.503 34.505-4.048 4.048-.01.009-151.528 151.53-34.504-34.504 29.868-29.868a7.515 7.515 0 0 0-10.627-10.628l-35.183 35.182a7.546 7.546 0 0 0-.529.591c-.055.068-.104.141-.156.212-.106.141-.21.283-.307.431-.055.086-.105.174-.157.263a6.301 6.301 0 0 0-.371.714 7.526 7.526 0 0 0-.186.447c-.02.053-.046.103-.065.156l-14.641 41.475-9.982 28.279a7.599 7.599 0 0 0-.298 1.143h-24.992a7.515 7.515 0 1 0 0 15.03h208.114a7.514 7.514 0 0 0 7.515-7.515 7.514 7.514 0 0 0-7.515-7.515H193.093l45.83-16.178c.038-.014.074-.033.112-.047.178-.066.353-.14.526-.219.069-.032.138-.062.205-.095.18-.09.357-.189.531-.295.056-.034.114-.065.169-.1.181-.116.357-.243.53-.377.043-.033.088-.062.13-.096.209-.168.414-.349.608-.543l154.644-154.643h65.255v160.546L354.137 387.53a7.515 7.515 0 1 0 10.628 10.628l.003-.003L496.972 265.95v66.302zm-274.295-66.556-21.526 7.599-14.342-14.342 7.599-21.526 28.269 28.269z" fill="#FDA31B" data-original="#000000" class=""></path></g></svg>