<svg xmlns="http://www.w3.org/2000/svg" version="1.1" xmlns:xlink="http://www.w3.org/1999/xlink" xmlns:svgjs="http://svgjs.com/svgjs" width="512" height="512" x="0" y="0" viewBox="0 0 682.667 682.667" style="enable-background:new 0 0 512 512" xml:space="preserve" class=""><g><defs><clipPath id="a" clipPathUnits="userSpaceOnUse"><path d="M0 512h512V0H0Z" fill="#FDA31B" data-original="#000000"></path></clipPath></defs><g clip-path="url(#a)" transform="matrix(1.33333 0 0 -1.33333 0 682.667)"><path d="m0 0 5.23-8.634c7.798-12.872 11.992-28.314 11.992-44.154 0-9.676-1.566-19.263-4.613-28.242L5.64-101.568h64.134L62.805-81.03c-3.047 8.979-4.613 18.566-4.613 28.242 0 15.84 4.194 31.282 11.992 44.154l5.228 8.631" style="stroke-width:15;stroke-linecap:round;stroke-linejoin:round;stroke-miterlimit:10;stroke-dasharray:none;stroke-opacity:1" transform="translate(218.293 205.401)" fill="none" stroke="#FDA31B" stroke-width="15" stroke-linecap="round" stroke-linejoin="round" stroke-miterlimit="10" stroke-dasharray="none" stroke-opacity="" data-original="#000000" class=""></path><path d="M0 0h-47.274c-4.091 0-7.285-3.516-6.905-7.589 1.175-12.596 3.987-28.989 10.417-45.978 10.796-28.526 28.461-50.675 52.764-66.26" style="stroke-width:15;stroke-linecap:round;stroke-linejoin:round;stroke-miterlimit:10;stroke-dasharray:none;stroke-opacity:1" transform="translate(124.556 403.258)" fill="none" stroke="#FDA31B" stroke-width="15" stroke-linecap="round" stroke-linejoin="round" stroke-miterlimit="10" stroke-dasharray="none" stroke-opacity="" data-original="#000000" class=""></path><path d="M0 0c-77.461 19.488-111.112 69.988-125.713 109.48-15.973 43.201-12.741 81.994-12.596 83.624.805 9.026 8.369 15.945 17.431 15.945h72.18" style="stroke-width:15;stroke-linecap:round;stroke-linejoin:round;stroke-miterlimit:10;stroke-dasharray:none;stroke-opacity:1" transform="translate(173.254 229.209)" fill="none" stroke="#FDA31B" stroke-width="15" stroke-linecap="round" stroke-linejoin="round" stroke-miterlimit="10" stroke-dasharray="none" stroke-opacity="" data-original="#000000" class=""></path><path d="M0 0h47.274c4.091 0 7.285-3.516 6.905-7.589a186.158 186.158 0 0 0-3.903-24.351" style="stroke-width:15;stroke-linecap:round;stroke-linejoin:round;stroke-miterlimit:10;stroke-dasharray:none;stroke-opacity:1" transform="translate(387.444 403.258)" fill="none" stroke="#FDA31B" stroke-width="15" stroke-linecap="round" stroke-linejoin="round" stroke-miterlimit="10" stroke-dasharray="none" stroke-opacity="" data-original="#000000" class=""></path><path d="M0 0c77.462 19.487 111.114 69.988 125.715 109.48 15.973 43.201 12.741 81.994 12.596 83.624-.805 9.026-8.369 15.945-17.431 15.945H48.7" style="stroke-width:15;stroke-linecap:round;stroke-linejoin:round;stroke-miterlimit:10;stroke-dasharray:none;stroke-opacity:1" transform="translate(338.744 229.209)" fill="none" stroke="#FDA31B" stroke-width="15" stroke-linecap="round" stroke-linejoin="round" stroke-miterlimit="10" stroke-dasharray="none" stroke-opacity="" data-original="#000000" class=""></path><path d="M0 0c-10.715-22.625-26.312-40.678-46.655-54.044" style="stroke-width:15;stroke-linecap:round;stroke-linejoin:round;stroke-miterlimit:10;stroke-dasharray:none;stroke-opacity:1" transform="translate(426.372 338.303)" fill="none" stroke="#FDA31B" stroke-width="15" stroke-linecap="round" stroke-linejoin="round" stroke-miterlimit="10" stroke-dasharray="none" stroke-opacity="" data-original="#000000" class=""></path><path d="M0 0h190.37a9.25 9.25 0 0 0 9.249-9.249v-23.222a9.25 9.25 0 0 0-9.249-9.249H-90.037a9.25 9.25 0 0 0-9.249 9.249v23.222A9.25 9.25 0 0 0-90.037 0h54.871" style="stroke-width:15;stroke-linecap:round;stroke-linejoin:round;stroke-miterlimit:10;stroke-dasharray:none;stroke-opacity:1" transform="translate(205.833 504.51)" fill="none" stroke="#FDA31B" stroke-width="15" stroke-linecap="round" stroke-linejoin="round" stroke-miterlimit="10" stroke-dasharray="none" stroke-opacity="" data-original="#000000" class=""></path><path d="M0 0v0c-72.594 0-131.444 58.85-131.444 131.444v131.444h262.888V131.444C131.444 58.85 72.594 0 0 0Z" style="stroke-width:15;stroke-linecap:round;stroke-linejoin:round;stroke-miterlimit:10;stroke-dasharray:none;stroke-opacity:1" transform="translate(256 199.902)" fill="none" stroke="#FDA31B" stroke-width="15" stroke-linecap="round" stroke-linejoin="round" stroke-miterlimit="10" stroke-dasharray="none" stroke-opacity="" data-original="#000000" class=""></path><path d="M0 0h-159.686v23.211c0 13.785 11.175 24.96 24.96 24.96H-24.96C-11.175 48.171 0 36.996 0 23.211Z" style="stroke-width:15;stroke-linecap:round;stroke-linejoin:round;stroke-miterlimit:10;stroke-dasharray:none;stroke-opacity:1" transform="translate(335.843 55.662)" fill="none" stroke="#FDA31B" stroke-width="15" stroke-linecap="round" stroke-linejoin="round" stroke-miterlimit="10" stroke-dasharray="none" stroke-opacity="" data-original="#000000" class=""></path><path d="M0 0h-229.277a6.47 6.47 0 0 0-6.471 6.471v35.23a6.471 6.471 0 0 0 6.471 6.471H0a6.47 6.47 0 0 0 6.47-6.471V6.471A6.47 6.47 0 0 0 0 0Z" style="stroke-width:15;stroke-linecap:round;stroke-linejoin:round;stroke-miterlimit:10;stroke-dasharray:none;stroke-opacity:1" transform="translate(370.639 7.49)" fill="none" stroke="#FDA31B" stroke-width="15" stroke-linecap="round" stroke-linejoin="round" stroke-miterlimit="10" stroke-dasharray="none" stroke-opacity="" data-original="#000000" class=""></path><path d="m0 0 9.618-19.488a10.376 10.376 0 0 1 7.812-5.676l21.507-3.125c8.51-1.236 11.908-11.694 5.75-17.696l-15.562-15.17a10.372 10.372 0 0 1-2.984-9.184l3.673-21.42c1.454-8.474-7.442-14.938-15.054-10.936L-4.476-92.583a10.37 10.37 0 0 1-9.656 0l-19.236-10.112c-7.611-4.002-16.507 2.462-15.054 10.936l3.674 21.42c.577 3.366-.539 6.8-2.984 9.184l-15.562 15.17c-6.158 6.002-2.76 16.46 5.75 17.696l21.506 3.125a10.374 10.374 0 0 1 7.812 5.676L-18.607 0C-14.802 7.712-3.806 7.712 0 0Z" style="stroke-width:15;stroke-linecap:round;stroke-linejoin:round;stroke-miterlimit:10;stroke-dasharray:none;stroke-opacity:1" transform="translate(265.304 387.213)" fill="none" stroke="#FDA31B" stroke-width="15" stroke-linecap="round" stroke-linejoin="round" stroke-miterlimit="10" stroke-dasharray="none" stroke-opacity="" data-original="#000000" class=""></path></g></g></svg>