<svg xmlns="http://www.w3.org/2000/svg" version="1.1" xmlns:xlink="http://www.w3.org/1999/xlink" xmlns:svgjs="http://svgjs.com/svgjs" width="512" height="512" x="0" y="0" viewBox="0 0 512 512" style="enable-background:new 0 0 512 512" xml:space="preserve" class=""><g><path d="M163.81 70.789a8 8 0 0 1-8 8H47.389a8 8 0 0 1 0-16H155.81a8 8 0 0 1 8 8zm-8 52.452H47.389a8 8 0 0 0 0 16H155.81a8 8 0 0 0 0-16zm0 60.452H47.389a8 8 0 0 0 0 16H155.81a8 8 0 0 0 0-16zm78.778-104.904h108.421a8 8 0 0 0 0-16H234.588a8 8 0 0 0 0 16zm0 60.452h108.421a8 8 0 0 0 0-16H234.588a8 8 0 0 0 0 16zm0 60.452h108.421a8 8 0 0 0 0-16H234.588a8 8 0 0 0 0 16zM512 366.391v94.719c0 28.061-22.829 50.89-50.89 50.89h-30.384c-28.061 0-50.89-22.829-50.89-50.89v-94.719c0-28.061 22.829-50.89 50.89-50.89h7.191v-158.89c0-9.579-7.793-17.372-17.372-17.372h-30.146v115.24a8 8 0 0 1-8 8H223.278c-13.323 0-20.079 4.59-20.079 13.644a8 8 0 0 1-16 0c0-9.054-6.755-13.644-20.079-13.644H8a8 8 0 0 1-8-8V8a8 8 0 0 1 8-8h159.121c11.331 0 21.459 5.251 28.079 13.447C201.819 5.251 211.947 0 223.278 0h159.121a8 8 0 0 1 8 8v115.24h30.146c18.401 0 33.372 14.971 33.372 33.372v158.89h7.192C489.17 315.501 512 338.331 512 366.391zM187.2 250.494V36.079C187.2 25.007 178.192 16 167.121 16H16v230.48h151.121c7.811 0 14.577 1.407 20.079 4.014zM374.399 16H223.278c-11.071 0-20.079 9.007-20.079 20.079v214.415c5.501-2.607 12.267-4.014 20.079-4.014h151.121zm79.518 315.501v50.569H496v-15.68c0-19.238-15.651-34.89-34.89-34.89h-7.193zm-58.081 34.89v15.68h42.081v-50.569h-7.191c-19.238-.001-34.89 15.651-34.89 34.889zM496 461.11v-63.04H395.836v63.04c0 19.238 15.651 34.89 34.89 34.89h30.384c19.238 0 34.89-15.651 34.89-34.89zm-149.778-60.416V504a8 8 0 0 1-8 8H8a8 8 0 0 1-8-8V400.694a8 8 0 0 1 8-8h330.221a8 8 0 0 1 8.001 8zm-330.222 8v13.13h314.221v-13.13zM330.222 496v-58.175H16V496h42.035v-31.013a8 8 0 0 1 16 0V496h37.538v-31.013a8 8 0 0 1 16 0V496h37.536v-31.013a8 8 0 0 1 16 0V496h37.538v-31.013a8 8 0 0 1 16 0V496h37.54v-31.013a8 8 0 0 1 16 0V496zM0 358.146v-39.472a8 8 0 0 1 8-8h296.038c1.404 0 2.784.37 4 1.072l34.183 19.736a8 8 0 0 1 0 13.856l-34.183 19.736a8.002 8.002 0 0 1-4 1.072H8a8 8 0 0 1-8-8zm292.336-31.473H56.354v23.472h235.983a47.571 47.571 0 0 1-.001-23.472zm29.885 11.736-14.271-8.24a31.478 31.478 0 0 0 .001 16.48zM16 350.146h24.354v-23.472H16z" fill="#FDA31B" data-original="#000000" class=""></path></g></svg>