<svg xmlns="http://www.w3.org/2000/svg" version="1.1" xmlns:xlink="http://www.w3.org/1999/xlink" xmlns:svgjs="http://svgjs.com/svgjs" width="512" height="512" x="0" y="0" viewBox="0 0 512 512" style="enable-background:new 0 0 512 512" xml:space="preserve" class=""><g><path d="M211 397v-15c0-9.665-7.835-17.5-17.5-17.5h0c-9.665 0-17.5 7.835-17.5 17.5v15c0 9.665 7.835 17.5 17.5 17.5h0c9.665 0 17.5-7.835 17.5-17.5zM306 397v-15c0-9.665-7.835-17.5-17.5-17.5h0c-9.665 0-17.5 7.835-17.5 17.5v15c0 9.665 7.835 17.5 17.5 17.5h0c9.665 0 17.5-7.835 17.5-17.5zM136 364.5h10v50M231 364.5h10v50M326 364.5h10v50M366 364.5h10v50" style="stroke-width:15;stroke-linecap:round;stroke-linejoin:round;stroke-miterlimit:10;" fill="none" stroke="#FDA31B" stroke-width="15" stroke-linecap="round" stroke-linejoin="round" stroke-miterlimit="10" data-original="#000000" class=""></path><path d="M66 444.5v-210c0-16.57 13.43-30 30-30h320c16.57 0 30 13.43 30 30v210M411 444.5V343" style="stroke-width:15;stroke-linecap:round;stroke-linejoin:round;stroke-miterlimit:10;" fill="none" stroke="#FDA31B" stroke-width="15" stroke-linecap="round" stroke-linejoin="round" stroke-miterlimit="10" data-original="#000000" class=""></path><path d="M101 444.5v-195c0-5.52 4.48-10 10-10h290c5.52 0 10 4.48 10 10V308M206 444.5v20c0 5.523 4.477 10 10 10h80c5.523 0 10-4.477 10-10v-20" style="stroke-width:15;stroke-linecap:round;stroke-linejoin:round;stroke-miterlimit:10;" fill="none" stroke="#FDA31B" stroke-width="15" stroke-linecap="round" stroke-linejoin="round" stroke-miterlimit="10" data-original="#000000" class=""></path><path d="M269.87 444.5H461c5.52 0 10 4.48 10 10v20c0 16.57-13.43 30-30 30H71c-16.57 0-30-13.43-30-30v-20c0-5.52 4.48-10 10-10h183.87M256 327.731V176.325M256 174.5c-11.046 0-20-8.954-20-20s8.954-20 20-20 20 8.954 20 20-8.954 20-20 20zM321 157.022v108.01l-30 29.99v32.71M321 155.532c-9.665 0-17.5-7.835-17.5-17.5s7.835-17.5 17.5-17.5 17.5 7.835 17.5 17.5-7.835 17.5-17.5 17.5zM221 327.732v-32.71l-30-29.99v-108.01" style="stroke-width:15;stroke-linecap:round;stroke-linejoin:round;stroke-miterlimit:10;" fill="none" stroke="#FDA31B" stroke-width="15" stroke-linecap="round" stroke-linejoin="round" stroke-miterlimit="10" data-original="#000000" class=""></path><circle cx="191" cy="138.032" r="17.5" style="stroke-width:15;stroke-linecap:round;stroke-linejoin:round;stroke-miterlimit:10;" fill="none" stroke="#FDA31B" stroke-width="15" stroke-linecap="round" stroke-linejoin="round" stroke-miterlimit="10" data-original="#000000" class=""></circle><path d="M479.5 194.5v85.52H356l-30 29.99v22.49" style="stroke-width:15;stroke-linecap:round;stroke-linejoin:round;stroke-miterlimit:10;" fill="none" stroke="#FDA31B" stroke-width="15" stroke-linecap="round" stroke-linejoin="round" stroke-miterlimit="10" data-original="#000000" class=""></path><circle cx="479.5" cy="169.5" r="25" style="stroke-width:15;stroke-linecap:round;stroke-linejoin:round;stroke-miterlimit:10;" fill="none" stroke="#FDA31B" stroke-width="15" stroke-linecap="round" stroke-linejoin="round" stroke-miterlimit="10" data-original="#000000" class=""></circle><path d="M32.5 194.5v85.52H156l30 29.99v22.49" style="stroke-width:15;stroke-linecap:round;stroke-linejoin:round;stroke-miterlimit:10;" fill="none" stroke="#FDA31B" stroke-width="15" stroke-linecap="round" stroke-linejoin="round" stroke-miterlimit="10" data-original="#000000" class=""></path><circle cx="32.5" cy="169.5" r="25" style="stroke-width:15;stroke-linecap:round;stroke-linejoin:round;stroke-miterlimit:10;" fill="none" stroke="#FDA31B" stroke-width="15" stroke-linecap="round" stroke-linejoin="round" stroke-miterlimit="10" data-original="#000000" class=""></circle><path d="M156 334.5h200M433.591 113.116c-7.257-26.692-26.936-49.553-54.908-59.74-13.955-5.075-28.351-6.418-42.107-4.516" style="stroke-width:15;stroke-linecap:round;stroke-linejoin:round;stroke-miterlimit:10;" fill="none" stroke="#FDA31B" stroke-width="15" stroke-linecap="round" stroke-linejoin="round" stroke-miterlimit="10" data-original="#000000" class=""></path><path d="M351.684 80.573C340.244 38.465 301.743 7.5 256.002 7.5s-84.233 30.956-95.681 73.073M94.5 81.31a88.404 88.404 0 0 0-16.09 31.8" style="stroke-width:15;stroke-linecap:round;stroke-linejoin:round;stroke-miterlimit:10;" fill="none" stroke="#FDA31B" stroke-width="15" stroke-linecap="round" stroke-linejoin="round" stroke-miterlimit="10" data-original="#000000" class=""></path><path d="M121.31 58.79c3.81-2.08 7.82-3.89 12.01-5.41 13.96-5.08 28.36-6.41 42.11-4.51M471.74 193.27c-5.27 13.26-15.09 24.24-27.54 30.98M415.41 110.33c16.6 0 31.65 6.68 42.6 17.51 5.27 5.22 9.61 11.4 12.69 18.26M41.3 146.1c9.49-21.09 30.68-35.77 55.3-35.77M40.26 193.27c3.08 7.75 7.7 14.7 13.49 20.49a60.89 60.89 0 0 0 14.05 10.49" style="stroke-width:15;stroke-linecap:round;stroke-linejoin:round;stroke-miterlimit:10;" fill="none" stroke="#FDA31B" stroke-width="15" stroke-linecap="round" stroke-linejoin="round" stroke-miterlimit="10" data-original="#000000" class=""></path></g></svg>