<svg xmlns="http://www.w3.org/2000/svg" version="1.1" xmlns:xlink="http://www.w3.org/1999/xlink" xmlns:svgjs="http://svgjs.com/svgjs" width="512" height="512" x="0" y="0" viewBox="0 0 68 68" style="enable-background:new 0 0 512 512" xml:space="preserve" class=""><g><path d="M46.8 19.1C46.2 13.3 41.5 8.6 35.7 8c-7.7-.8-13.9 5.2-13.9 12.5 0 7.6 5.4 8.1 5.6 14.5-.7.3-1.1 1-1.1 1.7v5.4c0 .5.2 1 .6 1.4s.8.6 1.3.6h1.1c.5 2.4 2.6 4.2 5.1 4.2s4.6-1.8 5.1-4.2h1.1c1.1 0 1.9-.9 1.9-1.9v-5.4c0-.7-.4-1.4-1.1-1.7.1-7.2 6.4-7.1 5.4-16zM28.3 36.8h12.1v1.6H28.3zm6.1 9.4c-1.4 0-2.6-.9-3-2.2h6c-.4 1.2-1.6 2.2-3 2.2zm-6-4.2v-1.6h12.1V42zm10.9-7.3h-9.9c-.3-7.3-5.6-7.3-5.6-14.2 0-6.1 5.2-11.2 11.7-10.5 4.9.5 8.8 4.4 9.3 9.3.8 7.8-5.2 7.9-5.5 15.4z" fill="#FDA31B" data-original="#000000" class=""></path><path d="M37.9 19.3c1.8 0 3.2-1.4 3.2-3.2s-1.4-3.2-3.2-3.2-3.2 1.4-3.2 3.2v.5l-3.4 1.7c-.6-.6-1.4-1-2.3-1-1.8 0-3.2 1.4-3.2 3.2s1.4 3.2 3.2 3.2c.9 0 1.7-.4 2.3-.9l3.4 1.7v.5c0 1.8 1.4 3.2 3.2 3.2s3.2-1.4 3.2-3.2-1.4-3.2-3.2-3.2c-.9 0-1.7.4-2.3.9L32.2 21c.1-.4.1-.5 0-.9l3.4-1.7c.6.5 1.4.9 2.3.9zm0 4.4c.7 0 1.2.5 1.2 1.2s-.5 1.2-1.2 1.2-1.2-.5-1.2-1.2.5-1.2 1.2-1.2zm-8.9-2c-.7 0-1.2-.5-1.2-1.2s.5-1.2 1.2-1.2 1.2.5 1.2 1.2-.5 1.2-1.2 1.2zm8.9-6.8c.7 0 1.2.5 1.2 1.2s-.5 1.2-1.2 1.2-1.2-.5-1.2-1.2.5-1.2 1.2-1.2zM53.1 26c-.6 0-1 .4-1 1v5.3c0 .5.5 1 1 1h5.3c.6 0 1-.4 1-1s-.4-1-1-1h-2.9c1.7-2.1 2.7-4.6 3-7.4.3-3.6-.8-7-3.1-9.8-.4-.4-1-.5-1.4-.1s-.5 1-.1 1.4c2 2.3 2.9 5.3 2.7 8.3-.2 2.2-1 4.3-2.4 6V27c-.1-.5-.6-1-1.1-1zM10.6 32.3c0 .6.4 1 1 1h5.3c.6 0 1-.5 1-1V27c0-.6-.4-1-1-1s-1 .4-1 1v2.8c-3.2-4.2-3.2-10.2.3-14.4.4-.4.3-1.1-.1-1.4-.4-.4-1.1-.3-1.4.1-4.2 5-4.1 12.2-.1 17.1h-2.9c-.6.1-1.1.6-1.1 1.1zM62.2 54.5c-.5-.1-.9-.3-1.2-.5-1.6-.9-1.8-2.7-1.9-3.1 1.4-1.8 2.3-4.2 2.3-6.3 0-4-3.2-7.2-7.2-7.2S47 40.6 47 44.6c0 2.2.9 4.5 2.3 6.3 0 .5-.3 2.2-1.9 3.1-.4.2-.8.3-1.3.5-1.4.4-3.4 1-3.5 4.8V64c0 1.2.9 2.1 2.1 2.1h3.5c.6 0 1-.4 1-1s-.4-1-1-1h-3.5s-.1 0-.1-.1v-4.8c.1-2.3.7-2.5 2-2.9.4-.1.8-.2 1.2-.4l5.6 5.6c.2.2.5.3.7.3s.5-.1.7-.3l5.6-5.6c.4.2.8.3 1.2.4 1.3.4 2 .6 2 2.9V64s0 .1-.1.1h-9.9c-.6 0-1 .4-1 1s.4 1 1 1h9.9c1.2 0 2.1-.9 2.1-2.1v-4.8c0-3.8-2-4.3-3.4-4.7zm-8-15.2c2.9 0 5.2 2.3 5.2 5.2 0 3.1-2.5 7.1-5.2 7.1s-5.2-4-5.2-7.1c-.1-2.8 2.3-5.2 5.2-5.2zm0 20.1-4.6-4.6c.7-.7 1.1-1.6 1.4-2.3 1 .7 2.1 1.1 3.3 1.1s2.3-.4 3.3-1.1c.2.7.6 1.6 1.4 2.3zM11.5 65.1c0 .6.4 1 1 1h9.1c1.1 0 2-.9 2-2v-4.4c-.1-3.5-1.9-4-3.2-4.4-.4-.1-.8-.2-1.1-.4-1.2-.7-1.6-2-1.6-2.6.4-.6.6-1.4.7-2.2.1 0 2.6.1 2.7.1.6 0 1-.4 1-1v-3.9c0-5-4-9-9-9s-9 4-9 9v4.1c0 .6.4 1 1 1h2.7c.1.6.3 1.2.7 1.9-.1.6-.4 1.8-1.6 2.6-.3.2-.7.3-1.1.4-1.3.4-3.2.9-3.2 4.4v4.4c0 1.1.9 2 2 2h3.2c.6 0 1-.4 1-1s-.4-1-1-1H4.6v-4.3c.1-2.1.6-2.2 1.8-2.5.3-.1.7-.2 1.1-.4l5.1 5c.2.2.5.3.7.3s.5-.1.7-.3l5-5c.4.2.7.3 1.1.4 1.2.3 1.7.5 1.8 2.5v4.3h-9.1c-.9 0-1.3.5-1.3 1zm3-12.5c-1 .5-2.1.5-3.1 0-2.7-1.4-1.6-4.8-1.8-7.2 2.2.7 4.5.7 6.7 0-.1 3.1.6 5.9-1.8 7.2zm-8.6-7.2c0-3.9 3.1-7 7-7s7 3.1 7 7v2.8h-1.6V44c0-.3-.2-.6-.4-.8-.3-.2-.6-.2-.9-.1-2.7 1.1-5.3 1.1-7.9 0-.5-.2-.8-.1-1.1.1s-.4.5-.4.8v4.5H5.9zm7 14.4-4.1-4.1c.5-.5.8-1.1 1.1-1.7 1.8 1.2 4.2 1.3 6 0 .2.6.6 1.1 1.1 1.7zM36 4.6V2.9c0-.6-.4-1-1-1s-1 .4-1 1v1.7c0 .6.4 1 1 1s1-.5 1-1zM25.5 8.8c.4-.4.4-1 0-1.4l-1.2-1.2c-.4-.4-1-.4-1.4 0s-.4 1 0 1.4l1.2 1.2c.4.4 1 .4 1.4 0zM47.1 6.2c-.4-.4-1-.4-1.4 0l-1.2 1.2c-.4.4-.4 1 0 1.4s1 .4 1.4 0l1.2-1.2c.4-.3.4-1 0-1.4z" fill="#FDA31B" data-original="#000000" class=""></path></g></svg>