<svg xmlns="http://www.w3.org/2000/svg" version="1.1" xmlns:xlink="http://www.w3.org/1999/xlink" xmlns:svgjs="http://svgjs.com/svgjs" width="512" height="512" x="0" y="0" viewBox="0 0 64 64" style="enable-background:new 0 0 512 512" xml:space="preserve" class=""><g><g data-name="graduation cap-world-globe-book-education"><path d="M62 45a3.009 3.009 0 0 0-3-3H40.21A18.01 18.01 0 0 0 50 26a17.493 17.493 0 0 0-.26-2.91l11.73-6.21a1 1 0 0 0-.06-1.79l-29-13a.979.979 0 0 0-.82 0l-29 13a1 1 0 0 0-.06 1.79L6 18.72v4.42A4 4 0 0 0 3 27v3a1 1 0 0 0 1 1h6a1 1 0 0 0 1-1v-3a4 4 0 0 0-3-3.86v-3.36l6.26 3.31A17.493 17.493 0 0 0 14 26a18.01 18.01 0 0 0 9.79 16H12a10 10 0 0 0 0 20h47a3 3 0 0 0 0-6v-8a3.009 3.009 0 0 0 3-3Zm-30-3a15.958 15.958 0 0 1-8-2.16v-8.43l3.59-3.59 1.86-.93a1 1 0 0 0 .52-1.13l-1-4a1 1 0 0 0-.73-.73l-4-1a.975.975 0 0 0-.48 0l-3.81.95-2.98-.42a16.021 16.021 0 0 1 4.13-6.24l3.3 2.48a.6.6 0 0 0 .15.09l4 2a1 1 0 0 0 .29.1l6 1A.86.86 0 0 0 35 20a.984.984 0 0 0 .83-.45l1.81-2.71 2.68-.89a1.058 1.058 0 0 0 .39-.24l1.77-1.77a15.611 15.611 0 0 1 2.34 2.53l-3.44 2.75c-.03.02-.06.05-.09.07l-2.85 2.86-4.81 1.92a.768.768 0 0 0-.18.1l-3 2a1.007 1.007 0 0 0-.44.67l-1 6a.993.993 0 0 0 .54 1.05L33 35.62V38a1 1 0 0 0 1 1h4a.967.967 0 0 0 .55-.17l2.64-1.75 1.86.46A15.906 15.906 0 0 1 32 42Zm-9.31-28.98a15.905 15.905 0 0 1 18.19-.32l-1.42 1.43-2.78.92a.962.962 0 0 0-.51.4l-1.64 2.46-5.22-.87-3.78-1.89Zm21.88 22.84-3.33-.83a.963.963 0 0 0-.79.14L37.7 37H35v-2a.977.977 0 0 0-.55-.89l-3.34-1.67.81-4.85 2.55-1.7 4.9-1.96a1.105 1.105 0 0 0 .34-.22l2.96-2.96 3.25-2.61a15.889 15.889 0 0 1-1.35 17.72ZM9 27v2H5v-2a2 2 0 0 1 4 0ZM5.28 16.07 32 4.1l26.72 11.97-9.42 5a17.985 17.985 0 0 0-34.6 0Zm17.01 14.22A1.033 1.033 0 0 0 22 31v7.47A15.968 15.968 0 0 1 16 26a15.585 15.585 0 0 1 .4-3.5l3.46.49c.13-.01.25-.01.38-.02l3.76-.94 3.18.79.66 2.64-1.29.65c-.08.06-.17.12-.26.18ZM14 46a6 6 0 0 0 0 12h45a1 1 0 0 1 0 2H12a8 8 0 0 1 0-16h47a1 1 0 0 1 0 2Zm43 2v8H14a4 4 0 0 1 0-8Z" fill="#FDA31B" data-original="#000000"></path><path d="M14 50v2h30v3a.984.984 0 0 0 .53.88.977.977 0 0 0 1.02-.05L48 54.2l2.45 1.63A1 1 0 0 0 52 55v-3h3v-2Zm36 3.13-1.45-.96a.975.975 0 0 0-1.1 0l-1.45.96V52h4Z" fill="#FDA31B" data-original="#000000"></path></g></g></svg>