<svg xmlns="http://www.w3.org/2000/svg" version="1.1" xmlns:xlink="http://www.w3.org/1999/xlink" xmlns:svgjs="http://svgjs.com/svgjs" width="512" height="512" x="0" y="0" viewBox="0 0 64 64" style="enable-background:new 0 0 512 512" xml:space="preserve"><g><path d="M55 20H43.09v-.13c0-.34 0-.68-.07-1l1.14-.19a1 1 0 0 0 .78-1.3l-1.58-4.78 8-2.65a1 1 0 0 0 .07-1.87l-19-8a1 1 0 0 0-.78 0l-19 8a1 1 0 0 0 .07 1.87l1.32.44v2.44a3 3 0 0 0-2 2.84V18a1 1 0 0 0 1 1h4a1 1 0 0 0 1-1v-2.33a3 3 0 0 0-2-2.84v-1.78l4.64 1.55-1.58 4.75a1 1 0 0 0 .78 1.3l.93.15c0 .35-.06.71-.06 1.06v.13H9a5 5 0 0 0-5 5V51a5 5 0 0 0 5 5h15v1.5a1.5 1.5 0 0 1-1.5 1.5 2.5 2.5 0 0 0 0 5h19a2.5 2.5 0 0 0 0-5 1.5 1.5 0 0 1-1.5-1.5V56h15a5 5 0 0 0 5-5V25a5 5 0 0 0-5-5Zm-39-3h-2v-1.32a.92.92 0 0 1 1-1 .92.92 0 0 1 1 1Zm39 5a3 3 0 0 1 3 3v23h-6.5v-1.73c0-7.46-6.81-9.62-10.87-10.92a22.63 22.63 0 0 1-2.52-.9 3 3 0 0 1-1.21-.94c3.2-2.46 5.48-7 6.05-11.51ZM30.18 48l-3.45-3.41-.07-.06-6.06-6c1.09-.45 2.21-.82 3.23-1.15l.68-.22C25.65 39 27.86 41 32 41s6.37-2 7.54-3.9l.48.15c4 1.27 9.48 3 9.48 9V48Zm-7.4-4.5a4 4 0 0 0-2.93 3L14.59 41a2 2 0 1 1 2.83-2.82Zm-8 .59L18.56 48H14.5v-1.73a8.45 8.45 0 0 1 .28-2.18ZM21.84 48a2 2 0 0 1 .5-2 2.08 2.08 0 0 1 2.87-.05L27.34 48Zm6.88-13.37a7.29 7.29 0 0 0 6.49-.05 5 5 0 0 0 2.06 1.7l.32.14A6.39 6.39 0 0 1 32 39a6.38 6.38 0 0 1-5.59-2.59l.38-.17a6.52 6.52 0 0 0 1.93-1.61Zm-7.4-17.76 1.54-4.63c.68-.55 3.55-2.57 9.14-2.57s8.46 2 9.14 2.57l1.54 4.63L32 18.65ZM32 2.08l16.16 6.81-5.48 1.83a.94.94 0 0 0-.15.09c-.75-.66-4-3.14-10.53-3.14s-9.78 2.48-10.53 3.14a.94.94 0 0 0-.15-.08l-5.48-1.84Zm-.16 18.57h.33l8.89-1.48v1.49A1 1 0 0 0 41 21a1 1 0 0 0 0 .17c-.52 5.81-4.4 12.19-9.14 12.19-5.1 0-9.2-7.39-9.2-13.5v-.73ZM9 22h11.85c.57 4.53 2.89 9.14 6.14 11.58a4.57 4.57 0 0 1-1.14.89 21.22 21.22 0 0 1-2.67 1A37.26 37.26 0 0 0 19 37l-.22-.22A4 4 0 0 0 12 39.6a4 4 0 0 0 1.16 2.82l.05.06a9.92 9.92 0 0 0-.71 3.79V48H6V25a3 3 0 0 1 3-3Zm32.5 39a.5.5 0 0 1 0 1h-19a.5.5 0 0 1 0-1 3.5 3.5 0 0 0 3.5-3.5V56h12v1.5a3.5 3.5 0 0 0 3.5 3.5ZM55 54H9a3 3 0 0 1-3-3v-1h52v1a3 3 0 0 1-3 3Z" fill="#FDA31B" data-original="#000000"></path><path d="M47 27h3a1 1 0 0 0 0-2h-3a1 1 0 0 0 0 2ZM47 31h6a1 1 0 0 0 0-2h-6a1 1 0 0 0 0 2Z" fill="#FDA31B" data-original="#000000"></path></g></svg>