<svg xmlns="http://www.w3.org/2000/svg" version="1.1" xmlns:xlink="http://www.w3.org/1999/xlink" xmlns:svgjs="http://svgjs.com/svgjs" width="512" height="512" x="0" y="0" viewBox="0 0 511 511" style="enable-background:new 0 0 512 512" xml:space="preserve" class=""><g><path d="M15 481h311.5v-15H263v-15.711c0-23.438 19.023-42.507 42.407-42.507 1.813 0 3.655.118 5.475.35l23.413 2.989 1.9-14.879-23.414-2.989a58.542 58.542 0 0 0-7.374-.47c-21.351 0-40.018 11.738-49.907 29.109-9.89-17.371-28.557-29.109-49.908-29.109-2.445 0-4.927.158-7.374.471L13 416.896V466H0v45h58.5v-15H15zm13-50.896 172.117-21.973a43.436 43.436 0 0 1 5.475-.35c23.384 0 42.408 19.069 42.408 42.507V466H28z" fill="#FDA31B" data-original="#000000" class=""></path><path d="M498 416.896 351.075 398.14l-1.9 14.879L483 430.104V466H341.5v15H496v15H73.5v15H511v-45h-13zM117 386v-30h30v-55h-30v-30H62v30H32v55h30v30zm-70-45v-25h30v-30h25v30h30v25h-30v30H77v-30zM481 30V0h-55v30h-30v55h30v30h55V85h30V30zm15 40h-30v30h-25V70h-30V45h30V15h25v30h30zM20.5 219h15v15h-15zM475.5 219h15v15h-15zM109.078 197.612c-4.024-9.643-6.064-19.854-6.064-30.35 0-21.07 8.218-40.859 23.139-55.722C141 96.75 160.718 88.604 181.675 88.604c21.074 0 40.87 8.222 55.741 23.151L255.5 129.91l18.084-18.155c14.872-14.93 34.667-23.152 55.738-23.152 2.606 0 5.244.131 7.84.389l1.484-14.927a94.632 94.632 0 0 0-9.324-.462c-25.089 0-48.658 9.79-66.365 27.566l-7.457 7.486-7.457-7.486c-17.706-17.776-41.276-27.565-66.368-27.565-24.953 0-48.431 9.698-66.108 27.308-17.768 17.698-27.553 41.261-27.553 66.35 0 12.489 2.43 24.644 7.221 36.126zM407.986 167.263c0 10.494-2.04 20.705-6.064 30.349l13.844 5.776c4.791-11.484 7.221-23.638 7.221-36.125 0-25.088-9.785-48.651-27.553-66.35-11.346-11.303-25.45-19.546-40.788-23.837l-4.041 14.445c12.87 3.601 24.712 10.523 34.243 20.019 14.921 14.863 23.138 34.652 23.138 55.723zM371.384 257.793l-10.627-10.586L255.5 352.873 150.243 247.207l-10.627 10.586L255.5 374.127z" fill="#FDA31B" data-original="#000000" class=""></path><path d="m196.134 208.984 40.533 99.2 33.172-113.177 25.94 80.504L327.228 234H460.5v-15H319.772l-18.551 24.489-32.06-99.496-34.828 118.823-35.467-86.8L172.317 219H50.5v15h130.183zM157.5 106h15v15h-15zM127.5 130h15v15h-15z" fill="#FDA31B" data-original="#000000" class=""></path></g></svg>