<svg xmlns="http://www.w3.org/2000/svg" version="1.1" xmlns:xlink="http://www.w3.org/1999/xlink" xmlns:svgjs="http://svgjs.com/svgjs" width="512" height="512" x="0" y="0" viewBox="0 0 64 64" style="enable-background:new 0 0 512 512" xml:space="preserve" class=""><g><path d="M51.515 17.964c-3.057 0-5.536 2.473-5.536 5.521s2.479 5.521 5.536 5.521 5.536-2.473 5.536-5.521-2.479-5.521-5.536-5.521zm0 1.998c1.95 0 3.536 1.579 3.536 3.523s-1.586 3.523-3.536 3.523-3.536-1.579-3.536-3.523 1.586-3.523 3.536-3.523zM12.515 17.964c-3.057 0-5.536 2.473-5.536 5.521s2.479 5.521 5.536 5.521 5.536-2.473 5.536-5.521-2.479-5.521-5.536-5.521zm0 1.998c1.95 0 3.536 1.579 3.536 3.523s-1.586 3.523-3.536 3.523-3.536-1.579-3.536-3.523 1.586-3.523 3.536-3.523zM43.127 41.98v-5.998c0-.795.316-1.558.878-2.121a3.005 3.005 0 0 1 2.123-.878h11.004a3.003 3.003 0 0 1 3.002 3v5.998a1 1 0 0 0 2 0v-5.999a5.001 5.001 0 0 0-5.003-5H46.129a5.004 5.004 0 0 0-5.003 5v5.999a1 1 0 0 0 2.002 0zM4.127 41.98v-5.998c0-.795.316-1.558.878-2.121a3.005 3.005 0 0 1 2.123-.878h11.004a3.003 3.003 0 0 1 3.002 3v5.998a1 1 0 0 0 2 0v-5.999a5.001 5.001 0 0 0-5.003-5H7.129a5.004 5.004 0 0 0-5.003 5v5.999a1 1 0 0 0 2.002 0z" fill="#FDA31B" data-original="#000000" class=""></path><path d="M44.95 37v5a1 1 0 0 0 2.001 0v-5a1 1 0 0 0-2 0zM5.95 37v5a1 1 0 0 0 2.001 0v-5a1 1 0 0 0-2 0zM55.95 37v5a1 1 0 0 0 2.001 0v-5a1 1 0 0 0-2 0zM16.95 37v5a1 1 0 0 0 2.001 0v-5a1 1 0 0 0-2 0zM32 29.999c-3.589 0-6.501 2.912-6.501 6.501s2.912 6.501 6.501 6.501 6.501-2.912 6.501-6.501-2.912-6.501-6.501-6.501zm0 2.002c2.483 0 4.499 2.016 4.499 4.499S34.483 40.999 32 40.999s-4.499-2.016-4.499-4.499 2.016-4.499 4.499-4.499zM19.095 61.015v-9a5 5 0 0 1 5-5.002h16.004a4.998 4.998 0 0 1 5 5.001v9.001a1 1 0 0 0 2.002 0v-9a7.002 7.002 0 0 0-7.002-7.001l-16.004-.001a7.002 7.002 0 0 0-7.002 7.001v9.001a1 1 0 0 0 2.002 0z" fill="#FDA31B" data-original="#000000" class=""></path><path d="M21 52v9a1 1 0 1 0 2 0v-9a1 1 0 1 0-2 0zM41 52v9a1 1 0 1 0 2 0v-9a1 1 0 1 0-2 0zM32 2a3.001 3.001 0 0 0 0 6 3.001 3.001 0 0 0 0-6zm0 2a1 1 0 1 1 0 2 1 1 0 0 1 0-2zM50 8a3.001 3.001 0 0 0 0 6 3.001 3.001 0 0 0 0-6zm0 2a1 1 0 1 1 0 2 1 1 0 0 1 0-2zM14 8a3.001 3.001 0 0 0 0 6 3.001 3.001 0 0 0 0-6zm0 2a1 1 0 1 1 0 2 1 1 0 0 1 0-2z" fill="#FDA31B" data-original="#000000" class=""></path><circle cx="262" cy="40" r="1" transform="translate(-230 -29)" fill="#FDA31B" data-original="#000000" class=""></circle><circle cx="262" cy="40" r="1" transform="translate(-230 -25)" fill="#FDA31B" data-original="#000000" class=""></circle><circle cx="262" cy="40" r="1" transform="translate(-226 -29)" fill="#FDA31B" data-original="#000000" class=""></circle><circle cx="262" cy="40" r="1" transform="matrix(-1 0 0 1 290 -29)" fill="#FDA31B" data-original="#000000" class=""></circle><circle cx="262" cy="40" r="1" transform="translate(-222 -29)" fill="#FDA31B" data-original="#000000" class=""></circle><circle cx="262" cy="40" r="1" transform="matrix(-1 0 0 1 286 -29)" fill="#FDA31B" data-original="#000000" class=""></circle><circle cx="262" cy="40" r="1" transform="translate(-218 -29)" fill="#FDA31B" data-original="#000000" class=""></circle><circle cx="262" cy="40" r="1" transform="matrix(-1 0 0 1 282 -29)" fill="#FDA31B" data-original="#000000" class=""></circle><circle cx="262" cy="40" r="1" transform="translate(-230 -21)" fill="#FDA31B" data-original="#000000" class=""></circle><circle cx="262" cy="40" r="1" transform="translate(-230 -17)" fill="#FDA31B" data-original="#000000" class=""></circle><circle cx="262" cy="40" r="1" transform="translate(-230 -13)" fill="#FDA31B" data-original="#000000" class=""></circle></g></svg>