<svg xmlns="http://www.w3.org/2000/svg" version="1.1" xmlns:xlink="http://www.w3.org/1999/xlink" xmlns:svgjs="http://svgjs.com/svgjs" width="512" height="512" x="0" y="0" viewBox="0 0 512 512" style="enable-background:new 0 0 512 512" xml:space="preserve" class=""><g><path d="M125.818 183.104c9.799 8.807 29.224 12.336 47.085 12.336 3.365 0 6.669-.13 9.849-.369 4.209 4.319 10.588 8.499 20.116 12.007 14.134 5.204 33.003 8.07 53.132 8.07 29.68 0 59.553-6.331 73.16-20.082 3.207.243 6.542.375 9.939.375 17.859 0 37.286-3.53 47.084-12.336 5.52-4.961 6.678-10.342 6.678-13.983 0-27.025-20.081-49.437-46.102-53.127 12.092-3.326 21.003-14.412 21.003-27.546 0-15.752-12.817-28.568-28.571-28.568-15.755 0-28.572 12.815-28.572 28.568 0 13.128 8.903 24.209 20.987 27.541a53.224 53.224 0 0 0-17.448 5.648c-14.703-15.274-35.33-24.807-58.155-24.807-22.826 0-43.454 9.532-58.158 24.806a53.213 53.213 0 0 0-17.446-5.648c12.083-3.332 20.986-14.413 20.986-27.541 0-15.752-12.817-28.568-28.571-28.568s-28.571 12.815-28.571 28.568c0 13.134 8.912 24.22 21.003 27.546-26.023 3.69-46.106 26.102-46.106 53.127 0 3.64 1.158 9.022 6.678 13.983zm198.8-94.657c0-8.033 6.537-14.568 14.572-14.568 8.034 0 14.571 6.535 14.571 14.568 0 8.035-6.537 14.571-14.571 14.571-8.035 0-14.572-6.537-14.572-14.571zm14.572 41.002c21.874 0 39.67 17.796 39.67 39.671 0 .476 0 1.741-2.036 3.571-6.351 5.707-23.009 9.14-40.37 8.733.203-1.241.312-2.517.312-3.831 0-16.544-5.007-31.936-13.576-44.756a39.497 39.497 0 0 1 16-3.388zm-83.188-18.619c36.813 0 66.764 29.95 66.764 66.763 0 13.208-29.327 23.554-66.767 23.554-37.438 0-66.766-10.346-66.766-23.554.001-36.814 29.953-66.763 66.769-66.763zm-97.759-22.383c0-8.033 6.537-14.568 14.571-14.568s14.571 6.535 14.571 14.568c0 8.035-6.537 14.571-14.571 14.571s-14.571-6.537-14.571-14.571zm14.571 41.002c5.572 0 10.99 1.175 15.997 3.387-8.569 12.82-13.577 28.213-13.577 44.756 0 1.217.096 2.502.314 3.832-17.36.408-34.021-3.026-40.372-8.733-2.036-1.83-2.036-3.095-2.036-3.571 0-21.874 17.798-39.671 39.674-39.671zM496 249h-44.049l-.094-40.475 8.409-.14c3.031 8.529 11.179 14.654 20.734 14.654 12.131 0 22-9.869 22-22s-9.869-22-22-22c-9.813 0-18.144 6.459-20.97 15.348l-15.306.255a7 7 0 0 0-6.884 7.015l.11 47.343h-20.803l-.251-86.653h14.072c2.931 8.708 11.167 15 20.851 15 12.131 0 22-9.869 22-22s-9.869-22-22-22c-9.683 0-17.919 6.292-20.851 15h-21.093a6.997 6.997 0 0 0-7 7.021l.273 93.632h-29.863a7 7 0 0 0-7 7c0 60.811-49.474 110.284-110.284 110.284S145.716 316.811 145.716 256a7 7 0 0 0-7-7h-29.864l.271-93.633a6.999 6.999 0 0 0-7-7.021H81.031c-2.931-8.708-11.167-15-20.851-15-12.131 0-22 9.869-22 22s9.869 22 22 22c9.683 0 17.919-6.292 20.851-15h14.072L94.852 249H74.049l.11-47.343a7 7 0 0 0-6.884-7.015l-15.306-.255c-2.826-8.889-11.157-15.348-20.969-15.348-12.132 0-22.001 9.869-22.001 22s9.869 22 22.001 22c9.555 0 17.703-6.125 20.733-14.654l8.409.14L60.049 249H16a7 7 0 0 0-7 7v23.999c0 12.553 10.212 22.765 22.765 22.765 18.979 0 35.289 10.914 42.567 28.484 7.277 17.569 3.462 36.821-9.959 50.241-8.876 8.877-8.876 23.319 0 32.196l33.941 33.941c8.876 8.874 23.318 8.874 32.196 0 13.438-13.439 32.694-17.271 50.258-9.996 17.56 7.273 28.468 23.598 28.468 42.604 0 12.553 10.212 22.766 22.765 22.766H280c12.553 0 22.765-10.213 22.765-22.766 0-18.979 10.914-35.288 28.483-42.566 17.572-7.277 36.823-3.461 50.242 9.959 8.876 8.874 23.318 8.876 32.196 0l33.941-33.941c8.876-8.877 8.876-23.319 0-32.196-13.421-13.42-17.236-32.672-9.959-50.241 7.278-17.57 23.589-28.484 42.567-28.484C492.788 302.765 503 292.553 503 280v-24a7 7 0 0 0-7-7zm-15-55.961c4.411 0 8 3.589 8 8s-3.589 8-8 8-8-3.589-8-8 3.589-8 8-8zm-29.18-45.692c4.411 0 8 3.589 8 8s-3.589 8-8 8-7.999-3.589-7.999-8 3.588-8 7.999-8zm-391.64 16c-4.411 0-8-3.589-8-8s3.589-8 8-8 7.999 3.589 7.999 8-3.588 8-7.999 8zM31 209.039c-4.412 0-8.001-3.589-8.001-8s3.589-8 8.001-8c4.411 0 7.999 3.589 7.999 8s-3.587 8-7.999 8zm458 70.96c0 4.833-3.932 8.765-8.765 8.765-24.749 0-46.016 14.226-55.501 37.126-9.486 22.901-4.508 47.999 12.992 65.5 3.418 3.417 3.418 8.979 0 12.396l-33.941 33.941c-3.416 3.416-8.979 3.418-12.396 0-17.5-17.5-42.597-22.48-65.5-12.992-22.9 9.485-37.126 30.752-37.126 55.5 0 4.833-3.932 8.766-8.765 8.766H232c-4.833 0-8.765-3.933-8.765-8.766 0-24.775-14.22-46.057-37.11-55.538-7.672-3.178-15.589-4.729-23.389-4.729-15.474 0-30.479 6.112-42.126 17.76-3.418 3.416-8.98 3.418-12.396 0l-33.941-33.941c-3.418-3.417-3.418-8.979 0-12.396 17.5-17.501 22.479-42.599 12.992-65.5-9.485-22.9-30.752-37.126-55.501-37.126-4.833 0-8.765-3.932-8.765-8.765v-17h108.91c3.646 65.284 57.91 117.284 124.09 117.284s120.444-52 124.09-117.284H489zM171.724 249a7 7 0 0 0-7 7c0 50.33 40.946 91.276 91.276 91.276 50.329 0 91.275-40.946 91.275-91.276a7 7 0 0 0-7-7zM256 333.276c-40.252 0-73.414-30.934-76.962-70.276h153.923c-3.547 39.343-36.71 70.276-76.961 70.276zm.002-242.094c22.659 0 41.094-18.435 41.094-41.094C297.096 27.432 278.662 9 256.002 9s-41.094 18.432-41.094 41.088c.001 22.659 18.435 41.094 41.094 41.094zm0-68.182c14.939 0 27.094 12.151 27.094 27.088 0 14.939-12.154 27.094-27.094 27.094s-27.094-12.154-27.094-27.094C228.909 35.151 241.063 23 256.002 23z" fill="#FDA31B" data-original="#000000" class=""></path></g></svg>