<svg xmlns="http://www.w3.org/2000/svg" version="1.1" xmlns:xlink="http://www.w3.org/1999/xlink" xmlns:svgjs="http://svgjs.com/svgjs" width="512" height="512" x="0" y="0" viewBox="0 0 512 512" style="enable-background:new 0 0 512 512" xml:space="preserve" class=""><g><path d="M498.404 475.679h-15.205v-89.173h15.205a7.5 7.5 0 0 0 0-15H348.328v-19.909c0-13.586-11.053-24.64-24.64-24.64h-13.443v-15.472c0-14.899-11.912-27.06-26.711-27.48V163a7.5 7.5 0 0 0-15 0v120.984h-25.066V110.623h25.066V128a7.5 7.5 0 0 0 15 0v-19.877c0-6.893-5.607-12.5-12.5-12.5H263.5V70.186c13.562-2.929 24.261-13.628 27.19-27.19h91.92v13.679l-73.334 139.339c-3.307.355-6.3 2.26-7.984 5.175a10.527 10.527 0 0 0 0 10.5l18.013 31.198a10.528 10.528 0 0 0 9.094 5.251H399a7.5 7.5 0 0 0 0-15h-68.002l-12.817-22.2h143.861l-12.817 22.2H434a7.5 7.5 0 0 0 0 15h17.822c3.739 0 7.223-2.011 9.093-5.25l18.014-31.201a10.53 10.53 0 0 0-.001-10.5c-1.683-2.915-4.677-4.821-7.984-5.175L397.611 56.675v-13.68h28.074a7.5 7.5 0 0 0 0-15H290.691C287.238 12.014 272.999 0 256 0s-31.238 12.014-34.69 27.995H86.315a7.5 7.5 0 0 0 0 15h28.074v13.679l-73.333 139.34c-3.307.355-6.3 2.26-7.984 5.175a10.53 10.53 0 0 0-.001 10.5v.001l18.014 31.201a10.53 10.53 0 0 0 9.093 5.249h123.423c3.739 0 7.223-2.011 9.093-5.25l18.013-31.2a10.527 10.527 0 0 0 0-10.5c-1.682-2.915-4.676-4.821-7.984-5.176L129.389 56.675v-13.68h91.92c2.93 13.562 13.628 24.261 27.19 27.19v25.437h-7.533c-6.893 0-12.5 5.607-12.5 12.5v175.882c-14.799.42-26.711 12.581-26.711 27.48v15.472h-13.443c-13.586 0-24.64 11.054-24.64 24.64v19.909H65.683c-32.856 0-59.587 26.73-59.587 59.587 0 32.856 26.73 59.586 59.587 59.586h42.057v10.815c0 3.918 2.156 7.482 5.626 9.301a10.469 10.469 0 0 0 10.849-.667l18.334-12.688 18.333 12.688a10.486 10.486 0 0 0 5.972 1.871c1.667 0 3.339-.399 4.877-1.205a10.472 10.472 0 0 0 5.626-9.301v-10.815h321.047a7.5 7.5 0 0 0 0-14.998zm-115.793-279.74h-56.344l56.344-107.058zm15-107.058 56.344 107.058h-56.344zm-283.222 0v107.058H58.045zm66.613 144.258H62.776l-12.817-22.2H193.82zm4.732-37.2H129.39V88.881zm49.771-160.444C235.505 24.194 244.699 15 256 15s20.495 9.194 20.495 20.495S267.301 55.99 256 55.99s-20.495-9.194-20.495-20.495zm-18.75 275.989c0-6.893 5.607-12.5 12.5-12.5h53.489c6.893 0 12.5 5.607 12.5 12.5v15.472h-78.489zM65.683 475.679c-24.585 0-44.587-20.001-44.587-44.587 0-24.585 20.001-44.586 44.587-44.586h10.44a34.013 34.013 0 0 0-5.919 19.211v50.751a34.006 34.006 0 0 0 5.92 19.211zm96.673 17.229-15.54-10.754a7.499 7.499 0 0 0-8.536 0l-15.541 10.754v-73.014h39.617zm305.843-88.013H306.084a7.5 7.5 0 0 0 0 15H468.2v22.396H306.084a7.5 7.5 0 0 0 0 15H468.2v18.389H177.356v-55.785h63.285a7.5 7.5 0 0 0 0-15H104.414a7.5 7.5 0 0 0 0 15h3.326v55.785h-3.326c-10.593 0-19.211-8.618-19.211-19.211v-50.751c0-10.593 8.618-19.211 19.211-19.211H225a7.5 7.5 0 0 0 0-15h-46.328v-19.909c0-5.315 4.324-9.64 9.64-9.64h135.376c5.315 0 9.64 4.325 9.64 9.64v19.909H260a7.5 7.5 0 0 0 0 15h208.199z" fill="#FDA31B" data-original="#000000" class=""></path></g></svg>