<svg xmlns="http://www.w3.org/2000/svg" version="1.1" xmlns:xlink="http://www.w3.org/1999/xlink" xmlns:svgjs="http://svgjs.com/svgjs" width="512" height="512" x="0" y="0" viewBox="0 0 16.933 16.933" style="enable-background:new 0 0 512 512" xml:space="preserve" class=""><g><path d="M8.731.53a.795.795 0 0 0-.743.528H1.323a.798.798 0 0 0-.794.794v2.646c-.005.357.534.357.53 0V1.852c0-.151.113-.265.264-.265h6.616v.53H1.852a.265.265 0 0 0-.265.264v7.408c0 .146.119.265.265.265h12.17a.265.265 0 0 0 .265-.265V6.35h.53v3.968a.258.258 0 0 1-.265.265H1.322a.258.258 0 0 1-.264-.265v-3.44c.005-.357-.534-.357-.529 0v3.44c0 .436.359.794.794.794h13.23a.798.798 0 0 0 .793-.794V6.35h.264a.8.8 0 0 0 .795-.795V1.323A.798.798 0 0 0 15.61.53zm0 .527h6.879a.26.26 0 0 1 .266.266v4.232a.261.261 0 0 1-.266.266h-4.498a.265.265 0 0 0-.172.062L9.524 7.098V6.085a.265.265 0 0 0-.264-.264h-.529a.259.259 0 0 1-.263-.266V1.323c0-.152.112-.266.263-.266zm2.117 1.059v2.646c0 .208.228.334.405.225l2.117-1.322a.265.265 0 0 0 0-.45l-2.117-1.324c-.16-.1-.405-.01-.405.225zm.53.478 1.351.846-1.351.844zm-9.261.052h5.822v2.909c0 .435.357.795.792.795h.264v1.322a.265.265 0 0 0 .437.202L11.21 6.35h2.548v3.175H8.467c0-.875-.713-1.586-1.588-1.586h-.264v-.674c.324-.291.53-.712.53-1.18v-.263c.146-.001.264-.12.263-.266v-.793A1.59 1.59 0 0 0 5.82 3.175h-.529c-.875 0-1.586.713-1.586 1.588v.793c0 .146.118.265.264.266v.263c0 .468.204.889.528 1.18v.674h-.265c-.875 0-1.586.71-1.586 1.586h-.53zM5.29 3.704h.53c.59 0 1.058.468 1.058 1.059v.42l-.342-.342a.264.264 0 0 0-.334-.033s-.765.484-1.442.484h-.529v-.53c0-.59.468-1.058 1.06-1.058zM.79 5.288a.264.264 0 0 0-.26.268v.265c-.006.357.533.357.528 0v-.265a.265.265 0 0 0-.268-.268zm5.518.07.307.309v.418a1.05 1.05 0 0 1-1.058 1.058c-.591 0-1.06-.467-1.06-1.058v-.263h.264c.679 0 1.37-.35 1.547-.463zM5.028 7.58c.165.059.343.093.529.093s.363-.034.529-.093v.572s-.09.314-.53.314c-.439 0-.528-.31-.528-.31zm-.796.886h.359s.228.529.966.529c.737 0 .965-.53.965-.53h.357c.59 0 1.058.469 1.058 1.06H3.176c0-.591.465-1.06 1.056-1.06zM2.911 11.64c-.728 0-1.325.594-1.325 1.322v.266c0 .308.112.588.29.813A1.588 1.588 0 0 0 .53 15.61v.53c0 .145.118.264.264.265h4.232a.265.265 0 0 0 .266-.266v-.53a1.59 1.59 0 0 0-1.347-1.567c.178-.225.288-.505.288-.813v-.266c0-.728-.594-1.322-1.322-1.322zm5.557 0c-.729 0-1.325.594-1.325 1.322v.266c0 .308.111.588.29.813a1.59 1.59 0 0 0-1.348 1.568v.53c0 .146.119.265.266.265h4.232a.265.265 0 0 0 .265-.266v-.53a1.59 1.59 0 0 0-1.346-1.567c.177-.225.288-.505.288-.813v-.266c0-.728-.594-1.322-1.322-1.322zm5.554 0c-.728 0-1.322.594-1.322 1.322v.266c0 .308.11.588.288.813a1.59 1.59 0 0 0-1.347 1.568v.53c0 .146.12.266.266.265h4.233a.265.265 0 0 0 .265-.266v-.53a1.59 1.59 0 0 0-1.348-1.567c.179-.225.29-.505.29-.813v-.266c0-.728-.596-1.322-1.325-1.322zm-11.111.53c.444 0 .793.348.793.792v.266c0 .444-.349.793-.793.793s-.795-.349-.795-.793v-.266c0-.444.35-.793.795-.793zm5.557 0c.444 0 .792.348.792.792v.266a.785.785 0 0 1-.792.793.787.787 0 0 1-.796-.793v-.266c0-.444.351-.793.796-.793zm5.554 0c.445 0 .795.348.795.792v.266c0 .444-.35.793-.795.793a.785.785 0 0 1-.793-.793v-.266c0-.444.35-.793.793-.793zM2.116 14.55h1.588c.59 0 1.058.468 1.058 1.059v.266H1.057v-.266c0-.591.468-1.059 1.06-1.059zm5.556 0H9.26c.591 0 1.06.468 1.06 1.059v.266H6.613v-.266c0-.591.468-1.059 1.058-1.059zm5.557 0h1.588c.591 0 1.059.468 1.059 1.059v.266h-3.705v-.266c0-.591.467-1.059 1.058-1.059z" fill="#FDA31B" data-original="#000000"></path></g></svg>