<svg xmlns="http://www.w3.org/2000/svg" version="1.1" xmlns:xlink="http://www.w3.org/1999/xlink" xmlns:svgjs="http://svgjs.com/svgjs" width="512" height="512" x="0" y="0" viewBox="0 0 511.277 511.277" style="enable-background:new 0 0 512 512" xml:space="preserve" class=""><g><path d="M470.375 186.654h-30.471v-3.422c0-8.518-6.93-15.447-15.448-15.447h-60.097c-4.142 0-7.5 3.357-7.5 7.5s3.358 7.5 7.5 7.5h60.097c.247 0 .448.2.448.447v91.447c0 4.143 3.358 7.5 7.5 7.5s7.5-3.357 7.5-7.5v-73.025h30.471c1.014 0 1.839.825 1.839 1.839v261.658c0 17.163-13.963 31.126-31.126 31.126H70.19c-17.163 0-31.126-13.963-31.126-31.126V203.493c0-1.014.825-1.839 1.839-1.839h31.471v256.513c0 10.576 8.604 19.181 19.181 19.181h329.167c10.577 0 19.181-8.604 19.181-19.181V306.668c0-4.143-3.358-7.5-7.5-7.5s-7.5 3.357-7.5 7.5v107.931H303.559c-15.716 0-29.9 6.646-39.92 17.262v-97.015c0-4.143-3.358-7.5-7.5-7.5s-7.5 3.357-7.5 7.5v97.016c-10.02-10.616-24.205-17.262-39.92-17.262h-34.08c-4.142 0-7.5 3.357-7.5 7.5s3.358 7.5 7.5 7.5h34.08c19.563 0 35.873 14.149 39.263 32.748H91.555a4.185 4.185 0 0 1-4.181-4.181V429.6h55.275c4.142 0 7.5-3.357 7.5-7.5s-3.358-7.5-7.5-7.5H87.374V183.232c0-.247.201-.447.448-.447h60.097c4.142 0 7.5-3.357 7.5-7.5s-3.358-7.5-7.5-7.5H87.822c-8.518 0-15.448 6.93-15.448 15.447v3.422H40.903c-9.285 0-16.839 7.554-16.839 16.839v261.658c0 25.434 20.692 46.126 46.126 46.126h370.896c25.434 0 46.126-20.692 46.126-46.126V203.493c.001-9.285-7.552-16.839-16.837-16.839zM303.559 429.599h121.344v28.568a4.185 4.185 0 0 1-4.181 4.181H264.297c3.389-18.6 19.699-32.749 39.262-32.749z" fill="#FDA31B" data-original="#000000" class=""></path><path d="M156.143 105.231c4.117.382 7.782-2.639 8.171-6.763 2.145-22.744 12.647-43.802 29.575-59.294C210.922 23.586 233.029 15 256.139 15c50.863 0 92.243 41.38 92.243 92.242 0 19.139-5.809 37.493-16.798 53.081a9.67 9.67 0 0 0-.181.268l-47.994 74.718a7.5 7.5 0 0 0-1.19 4.054v9.716a3.58 3.58 0 0 1-3.576 3.576h-.49l4.778-81.075h8.544c12.226 0 22.172-9.946 22.172-22.171v-.91c0-12.225-9.946-22.171-22.172-22.171-11.721 0-21.443 9.166-22.133 20.867l-.553 9.385h-26.301l-.553-9.385c-.689-11.701-10.412-20.867-22.133-20.867-12.226 0-22.172 9.946-22.172 22.171v.91c0 12.225 9.946 22.171 22.172 22.171h8.544l4.775 81.023c-1.727-.252-3.062-1.728-3.062-3.524v-9.716a7.508 7.508 0 0 0-1.189-4.054l-47.995-74.718a7.833 7.833 0 0 0-.18-.268 91.383 91.383 0 0 1-14.442-32.336 7.5 7.5 0 0 0-14.619 3.361 106.318 106.318 0 0 0 16.707 37.482l46.72 72.732v7.515c0 7.573 4.561 14.092 11.076 16.981v12.683c0 13.346 10.857 24.203 24.203 24.203h11.604c13.345 0 24.203-10.857 24.203-24.203v-12.683c6.514-2.889 11.076-9.407 11.076-16.981v-7.515l46.719-72.732c12.72-18.101 19.443-39.395 19.443-61.589C363.381 48.108 315.272 0 256.139 0c-26.868 0-52.572 9.983-72.377 28.109-19.677 18.01-31.887 42.496-34.381 68.951a7.497 7.497 0 0 0 6.762 8.171zm128.173 42.846a7.18 7.18 0 0 1 7.159-6.75c3.955 0 7.172 3.217 7.172 7.171v.91c0 3.954-3.217 7.171-7.172 7.171h-7.66zm-64.514 8.502c-3.955 0-7.172-3.217-7.172-7.171v-.91c0-3.954 3.217-7.171 7.172-7.171a7.179 7.179 0 0 1 7.159 6.75l.501 8.502zm48.103 15-4.777 81.075H248.15l-4.777-81.075zm3.238 107.163c0 5.074-4.128 9.203-9.203 9.203h-11.604c-5.074 0-9.203-4.129-9.203-9.203v-11.088h30.009v11.088zM387.513 56.951a7.472 7.472 0 0 0 4.945-1.864l16.364-14.368a7.5 7.5 0 0 0-9.896-11.272l-16.364 14.368a7.5 7.5 0 0 0 4.951 13.136zM382.562 102.184l16.364 14.369a7.467 7.467 0 0 0 4.946 1.864 7.5 7.5 0 0 0 4.952-13.136L392.46 90.912a7.498 7.498 0 0 0-10.584.688 7.498 7.498 0 0 0 .686 10.584zM103.455 40.719l16.364 14.368a7.467 7.467 0 0 0 4.945 1.864 7.5 7.5 0 0 0 4.951-13.136l-16.364-14.368a7.498 7.498 0 0 0-10.584.688 7.5 7.5 0 0 0 .688 10.584zM108.406 118.417a7.476 7.476 0 0 0 4.946-1.864l16.364-14.369a7.5 7.5 0 0 0-9.897-11.272l-16.364 14.369a7.5 7.5 0 0 0 4.951 13.136zM189.782 260.154a7.5 7.5 0 0 0-7.5-7.5h-73.879c-4.142 0-7.5 3.357-7.5 7.5s3.358 7.5 7.5 7.5h73.879a7.5 7.5 0 0 0 7.5-7.5zM205.13 290.805h-83.179c-4.142 0-7.5 3.357-7.5 7.5s3.358 7.5 7.5 7.5h83.179c4.142 0 7.5-3.357 7.5-7.5s-3.358-7.5-7.5-7.5zM205.13 327.346h-83.179c-4.142 0-7.5 3.357-7.5 7.5s3.358 7.5 7.5 7.5h83.179c4.142 0 7.5-3.357 7.5-7.5s-3.358-7.5-7.5-7.5zM205.13 363.887h-83.179c-4.142 0-7.5 3.357-7.5 7.5s3.358 7.5 7.5 7.5h83.179c4.142 0 7.5-3.357 7.5-7.5s-3.358-7.5-7.5-7.5zM411.375 260.154a7.5 7.5 0 0 0-7.5-7.5h-73.879c-4.142 0-7.5 3.357-7.5 7.5s3.358 7.5 7.5 7.5h73.879a7.5 7.5 0 0 0 7.5-7.5zM390.326 290.805h-83.179c-4.142 0-7.5 3.357-7.5 7.5s3.358 7.5 7.5 7.5h83.179c4.142 0 7.5-3.357 7.5-7.5s-3.358-7.5-7.5-7.5zM390.326 327.346h-83.179c-4.142 0-7.5 3.357-7.5 7.5s3.358 7.5 7.5 7.5h83.179c4.142 0 7.5-3.357 7.5-7.5s-3.358-7.5-7.5-7.5zM390.326 363.887h-83.179c-4.142 0-7.5 3.357-7.5 7.5s3.358 7.5 7.5 7.5h83.179c4.142 0 7.5-3.357 7.5-7.5s-3.358-7.5-7.5-7.5z" fill="#FDA31B" data-original="#000000" class=""></path></g></svg>