<svg xmlns="http://www.w3.org/2000/svg" version="1.1" xmlns:xlink="http://www.w3.org/1999/xlink" xmlns:svgjs="http://svgjs.com/svgjs" width="512" height="512" x="0" y="0" viewBox="0 0 682.667 682.667" style="enable-background:new 0 0 512 512" xml:space="preserve" class=""><g><defs><clipPath id="a" clipPathUnits="userSpaceOnUse"><path d="M0 512h512V0H0Z" fill="#FDA31B" data-original="#000000"></path></clipPath></defs><path d="M0 0v-35.024" style="stroke-width:15;stroke-linecap:round;stroke-linejoin:round;stroke-miterlimit:10;stroke-dasharray:none;stroke-opacity:1" transform="matrix(1.33333 0 0 -1.33333 577.565 108.79)" fill="none" stroke="#FDA31B" stroke-width="15" stroke-linecap="round" stroke-linejoin="round" stroke-miterlimit="10" stroke-dasharray="none" stroke-opacity="" data-original="#000000" class=""></path><g clip-path="url(#a)" transform="matrix(1.33333 0 0 -1.33333 0 682.667)"><path d="M0 0s-12.643 11.85-32.322 6.094C-50.393.81-55.068-23.819-42.896-33.526c6.99-5.574 17.537-10.195 31.76-15.352 31.833-11.542 19.669-56.469-12.806-56.424-12.674.018-18.592.87-29.666 8.242" style="stroke-width:15;stroke-linecap:round;stroke-linejoin:round;stroke-miterlimit:10;stroke-dasharray:none;stroke-opacity:1" transform="translate(296.744 285.967)" fill="none" stroke="#FDA31B" stroke-width="15" stroke-linecap="round" stroke-linejoin="round" stroke-miterlimit="10" stroke-dasharray="none" stroke-opacity="" data-original="#000000" class=""></path><path d="M0 0h-142.654" style="stroke-width:15;stroke-linecap:round;stroke-linejoin:round;stroke-miterlimit:10;stroke-dasharray:none;stroke-opacity:1" transform="translate(324.154 88.325)" fill="none" stroke="#FDA31B" stroke-width="15" stroke-linecap="round" stroke-linejoin="round" stroke-miterlimit="10" stroke-dasharray="none" stroke-opacity="" data-original="#000000" class=""></path><path d="m0 0 87.961-32.74a85.29 85.29 0 0 1 29.751-5.358h115.504a85.28 85.28 0 0 1 45.648 13.246l144.622 81.81c9.541 8.473 11.311 22.711 4.132 33.26-7.854 11.543-20.847 13.55-35.143 6.789L251.671 35.01l.166 22.844c-1.865 18.751-16.302 33.8-34.959 36.439l-85.746 9.873c-19.779 2.799-29.663 9.427-46.906 19.514a153.688 153.688 0 0 1-77.599 21.029H0" style="stroke-width:15;stroke-linecap:round;stroke-linejoin:round;stroke-miterlimit:10;stroke-dasharray:none;stroke-opacity:1" transform="translate(72.483 53.315)" fill="none" stroke="#FDA31B" stroke-width="15" stroke-linecap="round" stroke-linejoin="round" stroke-miterlimit="10" stroke-dasharray="none" stroke-opacity="" data-original="#000000" class=""></path><path d="M0 0c0-8.132-6.592-14.724-14.724-14.724H-50.26c-8.132 0-14.723 6.592-14.723 14.724v170.46c0 8.132 6.591 14.724 14.723 14.724h35.536C-6.592 185.184 0 178.592 0 170.46Z" style="stroke-width:15;stroke-linecap:round;stroke-linejoin:round;stroke-miterlimit:10;stroke-dasharray:none;stroke-opacity:1" transform="translate(72.483 39.968)" fill="none" stroke="#FDA31B" stroke-width="15" stroke-linecap="round" stroke-linejoin="round" stroke-miterlimit="10" stroke-dasharray="none" stroke-opacity="" data-original="#000000" class=""></path><path d="M0 0c5.748 14.058 8.972 29.424 9.102 45.539.478 59.416-41.245 109.331-97.163 121.288" style="stroke-width:15;stroke-linecap:round;stroke-linejoin:round;stroke-miterlimit:10;stroke-dasharray:none;stroke-opacity:1" transform="translate(387.879 190.004)" fill="none" stroke="#FDA31B" stroke-width="15" stroke-linecap="round" stroke-linejoin="round" stroke-miterlimit="10" stroke-dasharray="none" stroke-opacity="" data-original="#000000" class=""></path><path d="M0 0c19.196 8.016 35.939 20.76 48.761 36.788" style="stroke-width:15;stroke-linecap:round;stroke-linejoin:round;stroke-miterlimit:10;stroke-dasharray:none;stroke-opacity:1" transform="translate(321.327 122.97)" fill="none" stroke="#FDA31B" stroke-width="15" stroke-linecap="round" stroke-linejoin="round" stroke-miterlimit="10" stroke-dasharray="none" stroke-opacity="" data-original="#000000" class=""></path><path d="M0 0c-6.581-14.896-10.294-31.352-10.434-48.672-.206-25.549 7.393-49.339 20.566-69.112" style="stroke-width:15;stroke-linecap:round;stroke-linejoin:round;stroke-miterlimit:10;stroke-dasharray:none;stroke-opacity:1" transform="translate(161.384 286.2)" fill="none" stroke="#FDA31B" stroke-width="15" stroke-linecap="round" stroke-linejoin="round" stroke-miterlimit="10" stroke-dasharray="none" stroke-opacity="" data-original="#000000" class=""></path><path d="M0 0c-27.195-5.812-51.087-20.62-68.377-41.181" style="stroke-width:15;stroke-linecap:round;stroke-linejoin:round;stroke-miterlimit:10;stroke-dasharray:none;stroke-opacity:1" transform="translate(248.138 356.83)" fill="none" stroke="#FDA31B" stroke-width="15" stroke-linecap="round" stroke-linejoin="round" stroke-miterlimit="10" stroke-dasharray="none" stroke-opacity="" data-original="#000000" class=""></path><path d="M0 0c-35.213-28.855-57.833-72.554-58.229-121.637a158.85 158.85 0 0 1 6.317-45.757" style="stroke-width:15;stroke-linecap:round;stroke-linejoin:round;stroke-miterlimit:10;stroke-dasharray:none;stroke-opacity:1" transform="translate(173.352 359.452)" fill="none" stroke="#FDA31B" stroke-width="15" stroke-linecap="round" stroke-linejoin="round" stroke-miterlimit="10" stroke-dasharray="none" stroke-opacity="" data-original="#000000" class=""></path><path d="M0 0c40.722 28.461 67.517 75.542 67.947 129.006.404 49.993-22.34 94.768-58.208 124.176" style="stroke-width:15;stroke-linecap:round;stroke-linejoin:round;stroke-miterlimit:10;stroke-dasharray:none;stroke-opacity:1" transform="translate(364.86 106.249)" fill="none" stroke="#FDA31B" stroke-width="15" stroke-linecap="round" stroke-linejoin="round" stroke-miterlimit="10" stroke-dasharray="none" stroke-opacity="" data-original="#000000" class=""></path><path d="M0 0h-195.724a2.779 2.779 0 0 0-2.779 2.779v42.674A17.463 17.463 0 0 0-186.907 61.9l15.206 5.423c23.64 8.432 48.523 13.055 73.622 13.078 1.45.001 2.9-.011 4.35-.037 23.728-.426 47.197-5.022 69.551-12.99l15.358-5.475A17.461 17.461 0 0 0 2.778 45.451V2.779A2.779 2.779 0 0 0 0 0Z" style="stroke-width:15;stroke-linecap:round;stroke-linejoin:round;stroke-miterlimit:10;stroke-dasharray:none;stroke-opacity:1" transform="translate(371.839 356.83)" fill="none" stroke="#FDA31B" stroke-width="15" stroke-linecap="round" stroke-linejoin="round" stroke-miterlimit="10" stroke-dasharray="none" stroke-opacity="" data-original="#000000" class=""></path><path d="m0 0 54.739 21.642c5.12 2.025 5.12 9.273 0 11.297L-98.396 93.485a6.068 6.068 0 0 1-4.467 0l-153.135-60.546c-5.121-2.024-5.121-9.272 0-11.297l54.762-21.651" style="stroke-width:15;stroke-linecap:round;stroke-linejoin:round;stroke-miterlimit:10;stroke-dasharray:none;stroke-opacity:1" transform="translate(374.595 402.872)" fill="none" stroke="#FDA31B" stroke-width="15" stroke-linecap="round" stroke-linejoin="round" stroke-miterlimit="10" stroke-dasharray="none" stroke-opacity="" data-original="#000000" class=""></path><path d="M0 0h-20.033c-4.043 0-7.087 3.68-6.329 7.652l4.53 23.735a6.443 6.443 0 0 0 6.329 5.236h10.974A6.444 6.444 0 0 0 1.8 31.387L6.33 7.652C7.088 3.68 4.043 0 0 0Z" style="stroke-width:15;stroke-linecap:round;stroke-linejoin:round;stroke-miterlimit:10;stroke-dasharray:none;stroke-opacity:1" transform="translate(443.19 358.76)" fill="none" stroke="#FDA31B" stroke-width="15" stroke-linecap="round" stroke-linejoin="round" stroke-miterlimit="10" stroke-dasharray="none" stroke-opacity="" data-original="#000000" class=""></path></g></g></svg>