<svg xmlns="http://www.w3.org/2000/svg" version="1.1" xmlns:xlink="http://www.w3.org/1999/xlink" xmlns:svgjs="http://svgjs.com/svgjs" width="512" height="512" x="0" y="0" viewBox="0 0 100 100" style="enable-background:new 0 0 512 512" xml:space="preserve" class=""><g><path d="M56.35 41.21a1.25 1.25 0 0 1 0-1.77 4.22 4.22 0 0 1 6 0 1.25 1.25 0 0 1 0 1.77 1.27 1.27 0 0 1-1.77 0 1.72 1.72 0 0 0-2.44 0 1.26 1.26 0 0 1-1.76 0zm-16.9 0a1.71 1.71 0 0 1 2.44 0 1.25 1.25 0 0 0 1.76-1.77 4.22 4.22 0 0 0-6 0 1.25 1.25 0 0 0 0 1.77 1.27 1.27 0 0 0 1.8 0zM50 48a1.25 1.25 0 0 0 1.25-1.25v-4a1.25 1.25 0 1 0-2.5 0v4A1.25 1.25 0 0 0 50 48zm0 6.65a7.88 7.88 0 0 0 5.61-2.33 1.24 1.24 0 1 0-1.76-1.76 5.46 5.46 0 0 1-7.7 0 1.24 1.24 0 1 0-1.76 1.76A7.88 7.88 0 0 0 50 54.67zm44.49 6.11a1.25 1.25 0 0 1 .47 1v27.88a1.25 1.25 0 0 1-1 1.22L76 95a1.27 1.27 0 0 1-.28 0H13.16A6.18 6.18 0 0 1 7 88.86V58.12a9.28 9.28 0 0 1-2-5.72v-6.74a3.35 3.35 0 0 1 3.35-3.35h6.76v-5.16a3.9 3.9 0 0 1 3.4-3.91A3.79 3.79 0 0 1 22.73 37v15.72a8.73 8.73 0 0 1-1.95 5.52V72a17.07 17.07 0 0 1 7.47-6V46.53a8.12 8.12 0 0 1 0-13.29V26.8a21.8 21.8 0 0 1 43.59 0v6.44a8.12 8.12 0 0 1 0 13.29v18.65a6 6 0 0 1 1.4 1.25 6.35 6.35 0 0 1 3.56-2.17l16.64-3.72a1.21 1.21 0 0 1 1.05.24zm-20 8.89h1l16.91-3.89v-2.44L77.35 66.7a3.42 3.42 0 0 0-2.84 2.97zM59.8 92.54l-7.31-1.68a1.25 1.25 0 0 1-1-1.22V75.23h-4.62l3.81 17.31zm-.91-58.64a5.84 5.84 0 1 0 6.55 6.1v-.71a5.84 5.84 0 0 0-4.07-5.21c-.87-.02-1.7-.08-2.48-.18zm-4.4-.78c-5.54-1.34-8.18-3.61-9.42-5.38a15.74 15.74 0 0 1-4.45 3.61 8.35 8.35 0 0 1 8.09 7.09h2.67a8.34 8.34 0 0 1 3.11-5.32zM34.65 40a5.84 5.84 0 1 0 0-.71zm0 5.63a15.37 15.37 0 0 0 30.73 0 8.32 8.32 0 0 1-14-4.73h-2.67a8.32 8.32 0 0 1-14 4.73zm34.45 21L54 63.32v2.46l16.91 3.89h1a3.22 3.22 0 0 0-1.84-2.6H70a4.68 4.68 0 0 0-.87-.37zM54 88.65l15.52 3.57v-20.3L54 68.34zm-9.21-26.43v3.46l1.54 7h5.2v-9.8C51 63 50.54 63 50 63a17.89 17.89 0 0 1-5.21-.78zm24.55-14.5a8.36 8.36 0 0 1-1.66.29 17.93 17.93 0 0 1-10.43 13.47l12.09 2.7zm3.45-7.83a5.66 5.66 0 0 0-4.85-5.59v11.14a5.66 5.66 0 0 0 4.85-5.55zm-42-7.84a8 8 0 0 1 2.2-.31.76.76 0 0 1 .16 0c.31-.08 9-2.41 11-7.13a1.25 1.25 0 0 1 2.39.32s1 5 12.4 6.42h.77a8.54 8.54 0 0 1 2.21.3c1.47.09 3.08.12 4.84.09a2 2 0 0 1 .24 0 1.85 1.85 0 0 1 .23 0 8 8 0 0 1 2.2.31V26.8a19.3 19.3 0 0 0-38.59 0zm-3.49 7.84a5.65 5.65 0 0 0 4.87 5.58V34.29a5.65 5.65 0 0 0-4.87 5.6zm3.45 25.32a19.4 19.4 0 0 1 4.64-.55h6.9v-3.44A17.93 17.93 0 0 1 32.41 48a8.23 8.23 0 0 1-1.66-.29zm-17.06-6.15a6.35 6.35 0 0 0 6.54-6.34v-1.45h-6.16a1.06 1.06 0 0 0 0 2.12h1.85a1.25 1.25 0 1 1 0 2.5h-1.85a3.56 3.56 0 0 1-3.55-3.56 3.4 3.4 0 0 1 .16-1H7.54v1.07a6.57 6.57 0 0 0 6.15 6.66zm4-15.5v3.19a3.94 3.94 0 0 1-.57 2h3.15V37a1.27 1.27 0 0 0-.43-1 1.3 1.3 0 0 0-1-.33 1.41 1.41 0 0 0-1.15 1.43zm-10.15 2.1v3.15h4.68c1.58 0 2.93-.94 2.93-2.06v-1.94H8.39a.85.85 0 0 0-.85.85zm12 46.88h8.29V77a1.25 1.25 0 0 1 2.5 0v15.54h17.79l-5.58-25.38h-7.15c-6.57 0-11.72 3.42-14.51 9.64a1 1 0 0 0-.09.13v7.88a1.25 1.25 0 0 1-2.5 0V60.38a8.84 8.84 0 0 1-4.4 1.18h-.28a8.37 8.37 0 0 1-4.12-1.22v28.52a3.68 3.68 0 0 0 3.67 3.68zm54.5 0h.4V72.17H72v4.15a1.16 1.16 0 0 1 .22.66v15.56zm18.42-24.2-15.52 3.58v20.3l15.52-3.57z" fill="#FDA31B" data-original="#000000" class=""></path></g></svg>