<svg xmlns="http://www.w3.org/2000/svg" version="1.1" xmlns:xlink="http://www.w3.org/1999/xlink" xmlns:svgjs="http://svgjs.com/svgjs" width="512" height="512" x="0" y="0" viewBox="0 0 64 64" style="enable-background:new 0 0 512 512" xml:space="preserve" class=""><g><g data-name="Teacher Man"><path d="M12 56a2.995 2.995 0 0 0-2-2.816V50a1 1 0 0 0-1-1H3a2.993 2.993 0 0 0-1 5.816v2.368A2.993 2.993 0 0 0 3 63h6a1 1 0 0 0 1-1v-3.184A2.995 2.995 0 0 0 12 56Zm-9-5h5v2H3a1 1 0 0 1 0-2Zm5 10H3a1 1 0 0 1 0-2h5Zm1-4H4v-2h5a1 1 0 0 1 0 2Z" fill="#FDA31B" data-original="#000000" class=""></path><path d="M62.949 25.155 62.49 8.422a2.491 2.491 0 0 0-4.98 0l-.492 17.714-8.68 11.836-6.688-5.731a.984.984 0 0 0-.298-.178l-7.917-2.968L29 26.434v-3.199a8.052 8.052 0 0 0 1.987-2.35A4.52 4.52 0 0 0 32 21a3.78 3.78 0 0 0 4-3.5V9a8.01 8.01 0 0 0-8-8h-8a4.008 4.008 0 0 0-3.894 3.08A5.008 5.008 0 0 0 12 9v8.5a3.78 3.78 0 0 0 4 3.5 4.523 4.523 0 0 0 1.013-.115A8.052 8.052 0 0 0 19 23.235v3.199l-4.435 2.66-4.022 1.51A7.032 7.032 0 0 0 6 37.158V46a1 1 0 0 0 2 0v-8.842a5.022 5.022 0 0 1 3.245-4.681L14 31.443V61h-1a1 1 0 0 0 0 2h28a1 1 0 0 0 1-1V48.511l7.508 3.19a1 1 0 0 0 1.254-.415l12.74-21.758a3.62 3.62 0 0 0-.553-4.373ZM60 8a.488.488 0 0 1 .49.477l.429 15.648a3.353 3.353 0 0 0-1.849.19l.44-15.838A.488.488 0 0 1 60 8ZM22.9 37h2.2l1.846 17.54L24 56.75l-2.946-2.21Zm2.498-2h-2.796l-.8-1.515L24 32.166l2.198 1.32Zm.214-4.199 2.543-2.542 3.233 1.94-2.543 2.542ZM18 17v-4.098a5.86 5.86 0 0 0 3.286-1.623A22.44 22.44 0 0 0 30 12.986V17a6 6 0 0 1-12 0Zm14 2a2.5 2.5 0 0 1-.256-.028A7.963 7.963 0 0 0 32 17v-1c1.084 0 2 .687 2 1.5s-.916 1.5-2 1.5ZM17 6a1 1 0 0 0 1-1 2.002 2.002 0 0 1 2-2h8a6.007 6.007 0 0 1 6 6v5.487A4.387 4.387 0 0 0 32 14v-2a1 1 0 0 0-1-1c-6.538 0-9.423-1.817-9.445-1.832a1 1 0 0 0-1.418.328C19.279 10.966 17.019 11 17 11a1 1 0 0 0-1 1v2a4.387 4.387 0 0 0-2 .487V9a3.003 3.003 0 0 1 3-3Zm-1 13c-1.084 0-2-.687-2-1.5s.916-1.5 2-1.5v1a7.963 7.963 0 0 0 .256 1.972A2.498 2.498 0 0 1 16 19Zm8 6a7.95 7.95 0 0 0 3-.589v2.175l-3 3-3-3V24.41A7.95 7.95 0 0 0 24 25Zm-4.155 3.26 2.543 2.541-3.233 1.94-2.543-2.542ZM16 32.413l2.293 2.293a1 1 0 0 0 1.222.15l.57-.342.889 1.683-1.968 18.698a.997.997 0 0 0 .394.904l4 3a.998.998 0 0 0 1.2 0l4-3a.997.997 0 0 0 .394-.904l-1.968-18.698.89-1.683.57.342a1 1 0 0 0 1.221-.15L32 32.414V61H16Zm33.48 17.102L42 46.34V42a1 1 0 0 0-2 0v19h-6V31.443l6.483 2.432 6.668 5.715-.965 1.315a1 1 0 0 0 1.614 1.183l8.685-11.843 2.974 2.23Zm12.296-20.998-1.3 2.22-2.808-2.106 1.393-1.9a1.627 1.627 0 0 1 2.715 1.786Z" fill="#FDA31B" data-original="#000000" class=""></path></g></g></svg>